<svg xmlns="http://www.w3.org/2000/svg" width="166" height="18" viewBox="0 0 166 18">
    <path id="svg_def-copyright_mini" fill-rule="evenodd" fill="#000"
        d="M162.739 17.074V9.955h-6.228v7.119h-3.292V.612h3.292v6.473h6.228V.612h3.27v16.462h-3.27zm-18.401-5.851h-2.203v5.851h-3.292V.612h5.406c3.648 0 6.451 1.268 6.451 5.161 0 3.76-2.825 5.45-6.362 5.45zm-.333-8.008h-1.87v5.406h1.98c2.269 0 3.359-.957 3.359-2.848 0-1.913-1.201-2.558-3.469-2.558zm-11.553 13.859h-3.292v-6.028L124.221.612h3.493l1.645 4.004c.468 1.224.913 2.381 1.424 3.649h.089c.512-1.268 1.002-2.425 1.469-3.649l1.646-4.004h3.426l-4.961 10.434v6.028zm-8.146 0h-3.671l-3.381-6.229h-2.291v6.229h-3.292V.612h5.739c3.448 0 6.184 1.201 6.184 4.983 0 2.469-1.246 4.004-3.136 4.739l3.848 6.74zm-7.207-13.859h-2.136v5.027h2.136c2.113 0 3.27-.889 3.27-2.647 0-1.78-1.157-2.38-3.27-2.38zm-13.84 14.171c-4.493 0-7.897-2.982-7.897-8.476 0-5.428 3.514-8.61 7.897-8.61 2.38 0 4.026 1.024 5.095 2.114l-1.758 2.091c-.801-.778-1.736-1.379-3.226-1.379-2.736 0-4.649 2.136-4.649 5.673 0 3.581 1.646 5.739 4.871 5.739.801 0 1.602-.222 2.069-.623v-3.248h-2.913V7.976h5.85v7.429c-1.113 1.09-3.048 1.981-5.339 1.981zm-12.818-.312l-3.381-6.229h-2.291v6.229h-3.293V.612h5.739c3.449 0 6.185 1.201 6.185 4.983 0 2.469-1.246 4.004-3.136 4.739l3.848 6.74h-3.671zM86.904 3.215h-2.135v5.027h2.135c2.114 0 3.271-.889 3.271-2.647 0-1.78-1.157-2.38-3.271-2.38zM68.257.612h10.099v2.736H71.55v3.804h5.783v2.759H71.55v4.405h7.051v2.758H68.257V.612zm-8.881 10.611h-2.202v5.851h-3.292V.612h5.405c3.649 0 6.452 1.268 6.452 5.161 0 3.76-2.826 5.45-6.363 5.45zm-.333-8.008h-1.869v5.406h1.98c2.269 0 3.36-.957 3.36-2.848 0-1.913-1.202-2.558-3.471-2.558zM47.49 17.074h-3.292v-6.028L39.26.612h3.493l1.646 4.004c.466 1.224.912 2.381 1.423 3.649h.09c.512-1.268 1-2.425 1.468-3.649L49.026.612h3.426L47.49 11.046v6.028zM34.565 9.955h-6.229v7.119h-3.293V.612h3.293v6.473h6.229V.612h3.269v16.462h-3.269V9.955zM8.479 17.274c-4.494 0-8.388-3.226-8.388-8.475C.091 3.526 3.985.39 8.479.39c4.515 0 8.408 3.158 8.408 8.409 0 5.249-3.893 8.475-8.408 8.475zm0-15.283c-3.738 0-6.608 2.67-6.608 6.808 0 4.137 2.87 6.874 6.608 6.874 3.736 0 6.628-2.737 6.628-6.874 0-4.138-2.892-6.808-6.628-6.808zm-4.628 6.83c0-2.981 2.358-4.917 4.939-4.917 1.601 0 2.603.712 3.403 1.513l-1.467 1.668c-.535-.555-1.002-.867-1.67-.867-1.579 0-2.38 1.179-2.38 2.603 0 1.668.868 2.714 2.225 2.714.846 0 1.335-.356 1.98-.823l1.268 1.801c-.979.78-2.047 1.314-3.337 1.314-2.892 0-4.961-1.936-4.961-5.006z" />
</svg>
