<svg xmlns="http://www.w3.org/2000/svg" width="1494" height="1210" viewBox="0 0 1494 1210">
    <g id="svg_def-icon_wechat" fill-rule="evenodd" fill="#000">
        <path d="M287.4 309.3a75 75 0 1175 75 74.9 74.9 0 01-75-75m357.3 0a75 75 0 1175 75 74.9 74.9 0 01-75-75M5.1 443.1v19.7c3.3 139 74.2 252.3 196.5 332.3q15.5 12.8-20.2 128.8c-3.1 9.1-1.3 15.8 5.3 20.3s13.1 5 19.6 1.8q132.5-85.7 156.1-78.8c61.3 20.6 106.3 33.2 176.4 33.2 14.5 0 28.8-.5 42.9-1.4a336.1 336.1 0 01-25.2-127.4c0-216.2 209-391.5 466.8-391.5 14.4 0 28.6.6 42.7 1.6C1025.5 168.2 804.9 5 538.8 5 247.8 5 11.2 200.3 5.1 443.1"/>
        <path d="M828.5 670a62.7 62.7 0 1162.7 62.8 62.8 62.8 0 01-62.7-62.8m298.9 0a62.7 62.7 0 1162.7 62.8 62.8 62.8 0 01-62.7-62.8M596 790.1c0 207.1 199.9 375 446.5 375 58.6 0 96.3-10.5 147.6-27.8q19.8-5.7 130.5 66a15.5 15.5 0 006.8 1.7h.3a17.1 17.1 0 009.4-3.2c5.5-3.7 7-9.4 4.4-17q-29.9-97.2-17-107.9c104.9-68.6 164.5-166.5 164.5-286.8 0-207.2-199.9-375.1-446.5-375.1S596 582.9 596 790.1"/>
    </g>
</svg>
