<svg xmlns="http://www.w3.org/2000/svg" width="50" height="50" viewBox="0 0 50 50">
    <g id="svg_def-icon_TapTap" fill-rule="evenodd" fill="#000">
        <path d="M29.82 29.575c-.24-.236-.346-.71-.346-1.542V21.11c0-.765-.571-1.275-1.747-1.56-.752-.18-1.66-.324-2.658-.324-1.422 0-3.027.289-4.625 1.166-1.594.877-2.767 2.36-3.218 4.073-.188.718-.668 3.21 1.057 5.168.918 1.042 2.317 1.648 3.75 1.622 1.51-.028 2.791-.774 3.366-1.343.514.53 1.245.753 2.204.753.959 0 1.857-.33 2.341-.714.1-.079.083-.232-.024-.3a.658.658 0 01-.1-.078v.002zm-5.035-3.6c0 1.037-.49 1.518-.903 1.74-.224.12-.456.162-.663.162-.252 0-.467-.062-.586-.117-.484-.228-.746-.64-.827-1.298-.062-.505-.111-1.803.769-2.976.525-.701 1.298-1.168 1.89-1.138.176.01.32.16.32.335v3.293-.002zM38.708 18.394c-1.51.028-2.792.774-3.366 1.343-.513-.53-1.245-.753-2.203-.753-.957 0-1.855.33-2.341.714-.1.079-.083.231.024.3a.651.651 0 01.1.078c.24.236.345.71.345 1.54v12.401c0 .435.375.774.808.73l2.232-.227a1.833 1.833 0 001.649-1.825v-2.7c1.153.396 3.283.283 4.862-.65 1.353-.799 2.348-2.14 2.783-3.99.17-.721.582-3.382-1.144-5.34-.917-1.043-2.317-1.65-3.749-1.623v.002zm-.542 7.775c-.526.699-1.298 1.168-1.89 1.138a.34.34 0 01-.32-.336v-3.293c0-1.038.49-1.518.902-1.74.224-.12.456-.162.663-.162.253 0 .468.062.586.116.484.228.746.64.827 1.298.062.505.111 1.803-.768 2.977v.002z"/>
        <path d="M19.664 18.092v-1.987a.733.733 0 00-.806-.73l-7.952.8s-.414.037-.82.065c-.72.051-1.265.066-1.67-.11a1.424 1.424 0 01-.71-.69.181.181 0 00-.296-.051c-.466.49-.927 1.228-1.108 1.914-.198.748-.252 1.737.358 2.475.443.537 1.217.997 2.884.83l1.053-.108c.108-.012.2.073.2.18v10.262c0 .435.375.774.808.73l2.48-.251a1.833 1.833 0 001.648-1.826v-9.45c0-.093.071-.17.164-.18l2.285-.23a1.65 1.65 0 001.484-1.643h-.002z"/>
    </g>
</svg>
