<svg xmlns="http://www.w3.org/2000/svg" width="48" height="38" viewBox="0 0 48 38">
    <g id="svg_def-icon_weibo" fill-rule="evenodd" fill="currentColor">
        <path d="M46.733 16.934c-.38 1.268-2.237 1.629-3.139.65-.394-.428-.375-.935-.272-1.466.212-1.084.525-2.165.582-3.259.157-3.002-1.161-5.3-3.678-6.89-1.694-1.069-3.544-1.739-5.588-1.625-.579.032-1.149.235-1.722.366-1.069.244-2.009-.188-2.313-1.145-.266-.837.004-1.773 1.004-2.353.662-.384 1.358-.428 2.047-.536 4.083-.635 7.662.472 10.753 3.196 1.909 1.683 3.332 4.643 3.224 7.884.053 1.764-.39 3.482-.898 5.178zm-11.1-6.979c-.604-.021-1.216.032-1.819.102-.765.09-1.319-.259-1.461-.98-.126-.637.328-1.407.993-1.502 1.812-.256 3.591-.155 5.183.872 1.477.952 1.951 2.446 2.071 4.099.017.232.003.466.003.699l.042.003c-.048.48-.061.966-.15 1.438-.139.73-.827 1.186-1.508 1.049-.686-.138-1.057-.79-.955-1.554.145-1.099.115-2.187-.507-3.165-.436-.684-1.099-1.032-1.892-1.061zm-2.138 1.961c1.416.691 2.063 2.307 1.677 4.04-.122.549-.369 1.079-.622 1.587-.265.533-.198.867.37 1.097.329.133.692.18 1.032.29 2.197.711 3.922 2.004 4.652 4.251.586 1.804.147 3.57-.644 5.257-1.304 2.783-3.519 4.656-6.127 6.137-3.307 1.879-6.877 2.904-10.656 3.235-.41.036-.82.083-1.231.1-.412.017-.826.004-1.239.004-4.408-.072-8.71-.685-12.751-2.577-2.78-1.301-4.917-3.243-6.171-6.088-1.162-2.638-1.129-5.26-.028-7.913 1.315-3.17 3.41-5.78 5.752-8.231 1.981-2.072 4.104-3.96 6.662-5.306 1.581-.833 3.232-1.48 5.026-1.624.684-.055 1.421-.03 2.069.171 1.516.469 2.182 1.273 2.38 3.211.092.905-.133 1.843-.221 2.765-.049.51.097.736.612.679a6.496 6.496 0 001.545-.394c1.908-.711 3.844-1.307 5.906-1.196a5.353 5.353 0 012.007.505zm-8.718 5.777c-3.301-.673-6.599-.564-9.866.226-2.859.691-5.441 1.942-7.481 4.112-1.882 2.001-2.493 4.351-1.619 6.992.565 1.71 1.805 2.907 3.263 3.882 2.746 1.837 5.823 2.507 10.155 2.508 1.706.004 4.396-.45 6.915-1.654 2.467-1.18 4.623-2.752 6.022-5.18 1.54-2.672 1.104-5.856-1.141-7.951-1.757-1.639-3.934-2.463-6.248-2.935zm-4.395 15.249c-.814.291-1.701.376-2.555.556-1.776-.124-3.43-.569-4.961-1.396-1.242-.671-1.908-1.792-1.943-3.195-.024-.955.002-1.94.208-2.867.621-2.787 2.438-4.472 5.175-5.15 1.817-.449 3.637-.495 5.448.157 2.89 1.04 4.036 4.256 3.701 6.49-.444 2.954-2.476 4.474-5.073 5.405zm-2.158-5.288c-.226-.791-.894-1.126-1.637-1.313-.206-.052-.426-.044-.64-.065-.964-.021-1.697.422-2.268 1.149-.97 1.236-.517 2.733.98 3.198 1.095.341 2.049-.01 2.879-.735.683-.597.933-1.369.686-2.234zm1.773-2.637c-.55.006-1.169.644-1.168 1.204.001.531.319.881.798.88.59-.002 1.211-.646 1.189-1.235-.016-.435-.42-.853-.819-.849z"/>
    </g>
</svg>
