<svg xmlns="http://www.w3.org/2000/svg" width="43" height="20" viewBox="0 0 43 20">
    <g id="svg_def-icon_bilibili" fill-rule="evenodd" fill="#000">
        <path d="M42.28 17.946c0-.846-.044.097-.097.097h-1.509a.103.103 0 01-.103-.094l-.577-7.593a.099.099 0 01.099-.107h2.087c.056 0 .102.045.102.1l-.002 7.597zm-.193-8.633h-.784a.104.104 0 01-.102-.101l-.059-2.735a.098.098 0 01.099-.102h.849c.052 0 .095.044.095.096l.003 2.741a.101.101 0 01-.101.101zm-1.348 0h-.737a.093.093 0 01-.092-.086l-.211-2.749a.095.095 0 01.095-.103h.881c.055 0 .099.044.101.098l.059 2.742a.097.097 0 01-.096.098zm-1.521 7.784h-1.373a.112.112 0 01-.11-.098L35.999 2.875a.106.106 0 01.09-.116l1.897-.233a.102.102 0 01.114.092l1.22 14.366a.104.104 0 01-.102.113zm-2.632.53l-1.565.192a.093.093 0 01-.102-.073l-1.498-7.46a.104.104 0 01.089-.125l2.119-.262a.107.107 0 01.12.093l.924 7.522a.101.101 0 01-.087.113zM34.69 9.062a.1.1 0 01-.112-.087l-.335-2.719a.1.1 0 01.089-.112l.835-.104a.096.096 0 01.108.084l.333 2.725a.097.097 0 01-.085.11l-.833.103zm-1.281.158a.105.105 0 01-.115-.082l-.539-2.702a.089.089 0 01.077-.108l.901-.111a.104.104 0 01.116.089l.365 2.71a.104.104 0 01-.09.116l-.715.088zm-1.475 8.069c-1.239.764-3.972 2.147-7.848 1.704a.114.114 0 01-.1-.107c-.638-8.585-2.05-16.16-2.22-17.057a.102.102 0 01.068-.121L24.99.56a.091.091 0 01.123.093c-.049.899-.294 5.771.425 11.196a.116.116 0 00.128.101c1.946-.164 4.224-.037 6.743 1.402 2.411 1.38.738 3.19-.475 3.937zM30.14 14.1c-.049.873-1.345.121-3.138-.202a.1.1 0 00-.116.111c.127 1.203.347 2.784.4 3.037.011.048.075.101.145.062.129-.067 1.539-.777 2.746-1.937.046-.046.051-.123-.037-1.071zm-9.104 3.943h-1.509a.1.1 0 01-.102-.094l-.578-7.593a.1.1 0 01.1-.107h2.086a.1.1 0 01.101.1l-.001 7.597c0-.846-.044.097-.097.097zm-.097-8.73h-.783a.104.104 0 01-.102-.101l-.059-2.735a.1.1 0 01.099-.102h.849c.052 0 .097.044.097.096v2.741a.1.1 0 01-.101.101zm-1.347 0h-.736a.093.093 0 01-.092-.086l-.212-2.749a.096.096 0 01.095-.103h.88c.055 0 .099.044.099.098l.061 2.742a.095.095 0 01-.095.098zm-1.523 7.784h-1.371a.111.111 0 01-.11-.098L14.854 2.875a.104.104 0 01.091-.116l1.894-.233a.101.101 0 01.113.092l1.221 14.366a.105.105 0 01-.104.113zm-2.631.53l-1.564.192a.094.094 0 01-.103-.073l-1.497-7.46a.104.104 0 01.089-.125l2.12-.262a.107.107 0 01.119.093l.924 7.522a.101.101 0 01-.088.113zm-1.896-8.565a.1.1 0 01-.112-.087l-.333-2.719a.1.1 0 01.088-.112l.834-.104a.095.095 0 01.107.084l.336 2.725a.1.1 0 01-.086.11l-.834.103zm-1.28.158a.103.103 0 01-.114-.082l-.543-2.702a.094.094 0 01.079-.108l.901-.111a.103.103 0 01.116.089l.366 2.71a.104.104 0 01-.09.116l-.715.088zm-1.432 8.069c-1.238.764-3.973 2.147-7.846 1.704a.116.116 0 01-.102-.107C2.245 10.301.833 2.726.662 1.829a.105.105 0 01.068-.121L3.886.56a.093.093 0 01.125.093c-.049.899-.295 5.771.422 11.196a.119.119 0 00.13.101c1.945-.164 4.223-.037 6.743 1.402 2.41 1.38.738 3.19-.476 3.937zM9.037 14.1c-.049.873-1.345.121-3.139-.202a.1.1 0 00-.115.111c.127 1.203.349 2.784.4 3.037a.1.1 0 00.147.062c.127-.067 1.536-.777 2.744-1.937.046-.046.05-.123-.037-1.071z"/>
    </g>
</svg>
