<svg xmlns="http://www.w3.org/2000/svg" width="1024" height="1024" viewBox="0 0 1024 1024">
    <g id="svg_def-icon_skland" fill-rule="evenodd" fill="#000">
        <path clip-rule="evenodd"
              d="M917.377 590.982C929.264 607.271 943.352 630.384 947.095 646.673C950.397 660.761 946.214 670.666 942.032 675.949C930.585 692.238 912.314 693.119 899.106 693.559C888.099 693.999 875.551 694.659 861.683 701.043C844.185 709.167 835.754 716.305 826.505 724.136C825.98 724.581 825.453 725.027 824.921 725.477C820.518 729.439 815.895 733.401 810.172 737.583C785.957 755.413 739.289 776.985 671.047 801.859C624.379 818.809 574.629 834.658 566.484 835.758C565.163 835.979 563.622 836.199 562.081 836.419C560.87 836.568 559.613 836.725 558.311 836.887C542.342 838.879 519.706 841.702 494.06 841.702C421.636 841.702 365.942 819.469 328.74 775.665C281.631 720.194 278.769 638.308 289.776 581.736C264.461 571.391 232.101 556.642 200.622 541.014C116.531 498.97 107.946 486.203 103.543 479.379C100.461 474.757 90.7752 460.008 82.6303 388.688C78.888 356.771 75.8061 314.947 81.3095 296.017C85.7121 281.489 95.398 275.325 100.901 272.904C104.864 271.143 109.266 270.262 113.889 270.262C131.72 270.262 142.727 283.029 157.476 302.4C163.802 310.933 171.308 321.432 179.469 332.847C183.518 338.511 187.729 344.401 192.037 350.387C193.808 352.895 195.602 355.436 197.412 358.003C212.925 379.987 229.713 403.779 245.089 423.688C246.461 425.403 247.769 427.054 249.026 428.641C251.803 432.146 254.331 435.337 256.756 438.216C259.618 432.493 264.02 427.21 270.404 422.808C275.687 419.286 281.851 417.305 288.455 417.305C306.506 417.305 317.953 431.392 327.859 443.939C335.344 453.405 344.149 465.291 352.734 476.958C353.174 477.398 353.395 477.618 353.615 478.058C386.194 450.763 428.46 426.109 466.103 413.122C470.506 411.581 474.688 410.261 479.091 408.94C468.965 390.67 458.618 368.217 451.794 353.029C421.856 285.451 422.517 268.501 422.737 262.998C423.177 248.25 429.341 216.552 435.064 194.1C438.806 178.911 442.549 166.584 446.291 157.119L446.307 157.079C449.625 148.673 459.759 123 485.255 123C492.519 123 510.57 125.421 520.036 149.415C522.457 155.358 524.438 162.842 526.42 172.968C529.535 188.129 532.063 207.601 534.742 228.24C534.902 229.477 535.063 230.717 535.225 231.961C536.12 238.126 536.97 244.381 537.816 250.604C538.842 258.157 539.862 265.663 540.948 272.904C548.873 264.099 558.119 259.696 568.685 259.696C569.125 259.696 569.621 259.751 570.116 259.806C570.611 259.861 571.107 259.917 571.547 259.917C578.811 260.577 592.46 264.099 600.605 281.709C602.586 285.891 604.127 290.954 605.888 297.117C608.75 308.564 611.171 322.652 612.712 332.557C615.574 352.368 618.435 378.343 618.656 395.953C665.764 401.235 707.81 416.644 739.729 440.858C762.623 458.247 771.208 468.153 783.095 482.021C790.8 491.046 800.486 502.272 818.317 520.322C820.901 521.714 826.719 523.644 831.227 525.14C831.71 525.301 832.178 525.456 832.625 525.605C842.091 528.687 851.997 531.989 860.582 536.831C884.357 550.039 904.609 573.592 917.377 590.982ZM584.753 409.38C591.577 409.38 578.369 292.054 568.023 291.174C562.481 290.731 556.213 304.965 549.979 319.124C543.831 333.085 537.716 346.973 532.361 346.645C517.676 345.562 510.165 288.208 503.387 236.444C497.768 193.54 492.653 154.478 484.372 154.478C472.485 154.478 453.553 244.288 452.893 264.319C452.013 287.212 512.109 417.965 521.355 414.883C533.462 410.921 577.709 409.38 584.753 409.38ZM349.079 525.294C342.959 517.657 335.127 506.971 327.09 496.004C309.467 471.959 290.855 446.564 287.133 449.002C281.392 452.867 281.078 462.379 280.774 471.569C280.473 480.701 280.181 489.513 274.586 492.146C257.642 499.884 206.169 426.36 165.6 368.409C139.232 330.745 117.47 299.659 112.788 301.74C102.001 306.583 116.31 443.279 129.077 462.43C140.713 480.345 278.338 546.607 326.764 562.795C310.201 611.311 306.367 701.817 352.292 755.855C412.376 826.564 517.772 813.065 560.44 807.601L562.299 807.363C593.374 801.861 739.947 750.792 791.238 712.711C796.009 709.229 800.176 705.635 804.474 701.927C814.851 692.975 825.994 683.361 848.253 673.088C867.775 664.079 885.163 663.392 897.627 662.9C907.087 662.526 913.71 662.265 916.274 658.56C921.117 651.516 883.034 585.479 844.951 564.348C838.854 561.065 830.638 558.341 822.62 555.683C811.822 552.104 801.383 548.644 796.962 544.096C777.402 524.354 766.845 512.081 758.658 502.564C747.219 489.267 740.407 481.349 720.135 465.953C664.221 423.689 567.363 411.362 475.567 443.06C431.97 458.04 378.989 491.786 349.079 525.294Z"/>
        <path fill-opacity="0.2"
              d="M568.023 291.171C578.369 292.051 591.577 409.377 584.753 409.377C577.709 409.377 533.462 410.918 521.355 414.88C512.109 417.962 452.013 287.209 452.893 264.316C453.554 244.285 472.485 154.474 484.372 154.474C492.653 154.474 497.768 193.537 503.387 236.441C510.166 288.204 517.676 345.559 532.361 346.642C537.717 346.97 543.831 333.082 549.979 319.121C556.213 304.962 562.481 290.727 568.023 291.171Z"/>
        <path fill-opacity="0.2"
              d="M327.09 496.001C335.127 506.968 342.959 517.654 349.079 525.291C378.989 491.783 431.97 458.037 475.567 443.057C567.363 411.359 664.221 423.686 720.135 465.95C740.408 481.345 747.219 489.263 758.658 502.561C766.845 512.078 777.403 524.351 796.962 544.093C801.383 548.641 811.822 552.101 822.62 555.68C830.638 558.338 838.854 561.061 844.951 564.345C883.034 585.476 921.117 651.513 916.274 658.557C913.71 662.262 907.087 662.523 897.627 662.897C885.164 663.389 867.775 664.075 848.253 673.085C825.994 683.358 814.852 692.971 804.475 701.923C800.177 705.631 796.009 709.226 791.238 712.707C739.947 750.789 593.374 801.858 562.3 807.36L560.44 807.598C517.772 813.062 412.376 826.561 352.292 755.852C306.367 701.813 310.201 611.308 326.765 562.792C278.338 546.604 140.714 480.342 129.078 462.427C116.31 443.276 102.001 306.58 112.788 301.737C117.47 299.656 139.232 330.741 165.6 368.406C206.169 426.356 257.642 499.881 274.586 492.143C280.182 489.51 280.473 480.698 280.774 471.566C281.078 462.376 281.392 452.863 287.133 448.999C290.855 446.561 309.467 471.956 327.09 496.001Z"/>
        <path clip-rule="evenodd"
              d="M457.515 603.746C480.629 638.306 513.649 656.796 531.26 645.129C548.65 633.463 544.028 595.822 520.914 561.262C497.8 526.703 464.78 508.213 447.169 519.879C429.778 531.766 434.401 569.187 457.515 603.746Z"/>
        <path clip-rule="evenodd"
              d="M67 727.232C67 686.069 100.46 652.611 141.625 652.611C148.229 652.611 154.613 653.491 160.557 655.032C167.381 618.051 199.741 589.875 238.924 589.875C277.888 589.875 310.468 617.831 317.292 655.032C318.172 655.032 319.053 655.032 319.934 655.032C360.438 655.032 393.238 687.83 393.238 728.333C393.238 765.754 365.061 796.791 328.959 801.194L136.342 801.634C97.5986 798.992 67 766.634 67 727.232Z"/>
        <path d="M512.944 406.281C514.87 415 518.18 423.196 522.633 430.63C599.136 416.418 673.735 430.874 720.136 465.948C722.374 467.647 724.448 469.255 726.381 470.79H897.564C930.364 470.79 957 444.155 957 411.356C957 378.558 930.364 351.923 897.564 351.923C892.061 351.923 886.778 352.804 881.715 354.124C882.155 350.823 882.595 347.301 882.595 343.779C882.595 308.999 854.418 280.823 819.637 280.823C801.366 280.823 784.856 288.528 773.409 301.075C770.767 257.711 735.106 223.371 691.079 223.371C645.511 223.371 608.529 260.352 608.529 305.917V307.238C603.686 306.358 598.623 305.917 593.56 305.917C587.343 305.917 581.286 306.606 575.462 307.91C583.454 340.52 589.982 409.375 584.754 409.375C577.71 409.375 533.463 410.916 521.356 414.878C519.806 415.395 516.826 412.149 512.944 406.281Z"/>
    </g>
</svg>
