<svg xmlns="http://www.w3.org/2000/svg" width="245.2" height="286.3" viewBox="0 0 245.2 286.3">
    <g id="svg_def-icon_iOS" fill-rule="evenodd" fill="#000">
        <path d="M245.2 211a180.5 180.5 0 01-20.3 37.2 230.6 230.6 0 01-20.5 24.8c-7.6 8-17.1 13.9-28.6 13.1-6.3-.4-12.8-2.7-18.6-5.5a64.6 64.6 0 00-36.1-6c-6.9.8-13.8 3.3-20.4 5.7s-13.6 6-21.1 6c-9.3.1-17.3-3.6-24.4-9.3-13.4-10.7-22.7-24.8-31.3-39.5s-16.3-32.8-20-50.9C2 177.8 1.2 168.8.4 159.9c-1.3-13.3.7-26.3 4.5-39a71.4 71.4 0 0113.5-24.8 78.3 78.3 0 0129.5-23c14.5-6.4 29.1-7.8 44.2-2.6q13.2 4.6 26.7 8.1a38.4 38.4 0 0021.5-.8c8.8-2.8 17.4-6.1 26.2-8.5 19.6-5.1 37.4-.8 53.5 10.9 6 4.4 11.5 9.6 17.6 14.8-23.4 14.4-34.3 34.3-32.3 60.8s16.2 44.1 39.9 55.2z"/>
        <path d="M176.4 0c1.8 13.8-1.6 25.6-7.9 36.7s-16 21-28.5 26.4c-5.5 2.4-11.7 3.5-17.6 4.9-2.9.6-3.4-2-3.5-4.2a48.3 48.3 0 013.6-20.9c8.2-20.2 22.8-33.6 43.3-40.7 3.3-1.1 6.9-1.4 10.6-2.2z"/>
    </g>
</svg>
