<svg xmlns="http://www.w3.org/2000/svg" width="44" height="42" viewBox="0 0 44 42">
    <g id="svg_def-icon_mini_link_btn" fill-rule="evenodd" fill="#000">
        <path d="M5.3 4.7h-.1v13.1h3.9l.1-9.1h9.1V4.8l-13-.1z"/>
        <path d="M39 0v4.7H26.2v3.9l9.2.1-.1 9.1h3.9l.1-12.9L44 5 43.9.1 39 0z"/>
        <path d="M9.1 23.7H5.2v13.1h.1l13-.1v-3.9l-9.1.1-.1-9.2zM39.3 36.8v-.1l-.1-13h-3.9l.1 9.2h-9.2v3.9h13.1z"/>
        <path d="M39.1 41.9l4.9.1-.1-4.9L39 37l.1 4.9zM0 0l.1 4.9L5 5 4.9.1 0 0zM.1 41.9L5 42l-.1-4.9L0 37l.1 4.9zM28.5 14.4l-13 .1-.1 3.9h6.4l-6.1 6.1 2.8 2.8 6.1-6.1.1 6.3 3.9.1V14.4h-.1z"/>
    </g>
</svg>
