<svg xmlns="http://www.w3.org/2000/svg" width="28" height="34" viewBox="0 0 28 34">
    <path id="svg_def-icon_user" fill-rule="evenodd" fill="#000"
          d="M27.728 21.942V33.44H.745V21.93l9.039-5.163h8.912l9.032 5.159.006.004-.006.012zm-4.024 2.282l-6.087-3.477h-6.756l-6.093 3.481v5.231h18.936v-5.235zm-9.464-8.992c-4.137 0-7.485-3.331-7.459-7.424l.001-.047C6.808 3.705 10.139.429 14.24.429c4.119 0 7.458 3.304 7.458 7.379v.046c0 4.075-3.339 7.378-7.458 7.378zm-.002-10.875c-1.939-.013-3.521 1.533-3.532 3.452-.014 1.918 1.548 3.484 3.488 3.496 1.939.012 3.522-1.533 3.534-3.453.013-1.918-1.549-3.484-3.49-3.495z"/>
</svg>
