<svg xmlns="http://www.w3.org/2000/svg" width="242.9" height="306.7" viewBox="0 0 242.9 306.7">
        <g id="svg_def-icon_Android" fill="#000">
            <path d="M157.5 306.7H150c-.4-.3-.7-.7-1-.8a16.8 16.8 0 01-11.8-16.8c.5-12.4 0-24.7.2-37.1.1-3.2-.9-4.1-4-4-6.6.3-13.3.1-19.9.1h-9.3c-.3 6.1-.7 11.7-.8 17.3-.1 8.4 0 16.7 0 25.1-.1 10.2-11.4 17.4-20.5 14.8s-12.7-8.6-13-17.7c-.3-12.1-.1-24.2 0-36.3 0-2.9-.8-4.2-3.8-4a80.1 80.1 0 01-9.8 0c-9.7-.7-16.5-5.8-16.5-16.7.1-17.9 0-35.8.1-53.7.2-29.5.5-59.1.7-88.7a24.2 24.2 0 01.3-2.5h162.2v7.8c-.2 21-.5 42-.7 63.1-.3 18.7-.6 37.4-.8 56.2-.1 6.8.1 13.7 0 20.6s-4.4 12.6-10.5 13.9-10.1.7-15.2.8-5 0-5 4.9v34.8l-.3 3.8c-1.1 7.8-6.1 12.4-13.1 15.1zM68.2 0c3 4.5 6.3 8.9 8.9 13.7s3.3 4.7 7.5 2.7A87.5 87.5 0 01114.8 9a95.7 95.7 0 0133.3 3.2c4.8 1.3 9.2 3.8 14 5.5a4.2 4.2 0 003.7-1.5c2.7-3.9 5-8.1 7.5-12.2 1.1-1.9 2.5-3.6 4.9-2.4s1.2 3.6.3 5.3c-2.3 4.2-4.8 8.3-7.2 12.4-1.2 2-1 3.1 1 4.5a70.5 70.5 0 0122.3 24.7c4.6 8.1 6.7 17.1 8.5 26.1a13.8 13.8 0 01-.2 2.6h-4.5c-51.1 0-102.2-.1-153.4 0-3.4 0-4.5-.3-3.8-4.6a76.5 76.5 0 0122.1-42.7c3.3-3.3 7.4-5.7 11.3-8.6-2.7-4.9-5.1-9.8-8-14.3-1.8-2.7-1.3-4.7.1-7zm96.9 42.4a7 7 0 00-7-7.3c-3.5.1-7.4 3.7-7.5 6.8s3.9 7.8 7.2 7.7 7.9-2 7.3-7.2zm-68.3-.1c0-3.9-3.9-8-7.4-7.9s-7.5 4.6-7.6 7.2 4.9 8.1 7.8 7.9 7.3-4.1 7.2-7.2zM0 192a23.3 23.3 0 00.8-4.6q.2-47.7.1-95.5c0-7 2.9-12.7 8.9-15.8s14-2.3 19.9 3a14.9 14.9 0 014.6 11.3c.1 33.7.2 67.4 0 101.1-.1 5.5-.3 11.3-5 15.7a17.1 17.1 0 01-28.1-6.4A37.3 37.3 0 010 195zM208.6 129.5c0-9.6-.1-19.2 0-28.9.1-4.2-.1-8.6 1.1-12.5 2.5-8.8 10.4-14.1 20.3-11.9 8.3 1.8 12.9 7.9 12.9 16.4 0 11.1 0 22.2-.1 33.3-.2 23.3-.3 46.7-.8 70-.2 10.3-5.5 16.7-15.6 17.9s-17.8-5.9-18.4-16.2-.2-21.5-.2-32.2v-35.9z"/>
        </g>
</svg>
