<svg xmlns="http://www.w3.org/2000/svg" width="459.1" height="374.4" viewBox="0 0 459.1 374.4">
    <path id="svg_def-logo_rhodes_island" fill-rule="evenodd" fill="#000"
          d="M202.4,312.7h-.8v.9h.8ZM185.1,131.5v.9h-.9v.9h5.2v-1.8Zm16.5,182.1h-1.8v1.7h1.8Zm6,7h.9v-1.8h-.9v-.9h-.8v3.5h.8Zm-55.5,39.2h-2.7v.8h.9v.9h.9v.9h3.5v-1.8h-2.6ZM192,131.5v.9h.9v-.9ZM145.1,363.2h1.7v-.8h-1.7Zm86.9-236v.8h2.6v-.8ZM202.4,315.3h.9v2.6h.9v-.8h.8v-1.8h-.8v-.8h-1.8Zm-5.2-188.1v.8h.9v-.8Zm5.2,191.6h-1.7v-.9h-.9v-2.6h-2.6v-.8h-1.7v2.6h.9v.8h.8v.9H199v1.8h1.7v.8h.9v.9h.8v-1.7h.9v-.9h-.9Zm3.5-72.3H205v2.6h.9Zm-45.2,42.7h-.8v.9h.8Zm31.3-4.4h1.8V284h.8v-.9h-5.2v.9H192Zm12.2-28.7h.8v-4.4h-.8v.9h-.9v2.6h.9ZM113.8,360.6h2.6v-.8h-2.6Zm9.6-4.3h.9v.8h2.6v-1.7h-3.5Zm77.3-101.1h-.9v-1.7H199v4.3h1.7Zm1.7,7h-2.6v-1.8H199v-1.7h-.9v.9h-.9v1.7h-.8v.9h.8v.9H199v1.7h.8v.9h3.5v-1.8h-.9Zm-87.7,94.1h-.9v.8h.9Zm86-104.6h.9v-3.5h-1.8v4.4h.9ZM456.9,373.4h.8a1.1,1.1,0,0,0-.8-.3h-.8V372h-3.5l-3.5-.6v-.4h-2.7l-3.8-.8h-.5c-11.1-2.7-23.2-3.5-34.3-6.4-4-1-8-1.2-11.8-2.1l-2.6-.4c-7.8-10.6-15.5-21.3-23.3-32h0l-1.8-2.4v-.2h-.1c-.8-1.2-1.7-2.3-2.5-3.4h-.1l-3.9-5.4a6.1,6.1,0,0,0-1.4-.7h-.1c-1.8-1.2-5-1-7.4-1.6-6.1-1.7-12.9-2.8-19-4.6-1.8-.6-4.2-.5-6-1.1s-1.8-8.6-2.6-11.4c-3.1-10.4-4.6-21.7-7.7-32.4-6.5-22.9-10.3-47.2-16.8-70.1-1.1-3.9-1.3-7.7-2.4-11.7-2.4-8.5-3.7-17.6-6.2-26.4-.6-2.2-1.3-4.3-1.9-6.5v-.5H290c-.2-1-.5-2.1-.7-3.1v-.4h-.1a35.3,35.3,0,0,1-.7-8.2,128.5,128.5,0,0,0,18.9-2.2l2.2-.2h2.2c1.7,0,3.4,0,4.5-.8h.5c0-2.6-.1-5.2-.1-7.8h.4v-.8h8.7v-.4l.4.2v-.2l.4.2c.1-.1.1-.1.1-.2l.4.2c.8-2.5.6-8.3,0-10.8s-.1-2.9-.2-4.4c-.7-4.4-1.5-8.8-2.2-13.2L324,91c-3.3-13.7-3-29.3-6.2-43l-1.2-11c-1.7-6.9-1.5-13.8-3.2-20.7-.4-1.8-1-7.1-.4-7.9a2.2,2.2,0,0,0-1.6-.8c-.9-1.3-5.5-.8-7.8-1.4-5.4-1.3-11.7-1.3-17-2.6-2.1-.5-4.5,0-6-1a1.6,1.6,0,0,0-.6.8c-.9.8-.5,2.5-.6,4s0,5.4-.5,7.7c-1.4,6.2-.3,13.8-1.2,20.2-.4,2.6.6,8.5-.5,10.3v.6c-6.8-2.2-17.3-1.7-26.2-1.6-.5-10.9-1.1-21.9-1.6-32.8-1-4.4.7-7.8-1.7-10.8h-1l-.5-.6c-.3-.1-1,.3-1.7.6H218.9c-1-.6-3.5-.7-4.6-.8V.7h-.4l-4.2,43.9H197a73.3,73.3,0,0,1-12.7,1.9l-1.2-31.6c-.6-2.8.7-9.1-.5-11.1V3.4l-1.4-.2h0V2.6a19.6,19.6,0,0,0-9.1.8c-3.6.9-6.8.7-10.3,1.6a57.4,57.4,0,0,1-11.1,2.2v.7h-.5a77,77,0,0,1-1.9,12c-.9,3.8-.8,7.6-1.7,11.1,0,1.1-.1,2.2-.2,3.3-1.3,5.5-1.6,11.8-2.9,17.3-.2,2.2-.5,4.3-.7,6.5-2.1,8.6-2.2,18.3-4.3,26.9l-.7,6.4c-.9,3.5-.8,7.4-1.7,11.1a94.6,94.6,0,0,0-2.4,24.7h12.2c-.5,2.1.1,5-.9,6.7a2,2,0,0,0,.2,1.2c1.5,1.1,5.5.7,7.7,1.2s7.3.8,11,1.7a38.4,38.4,0,0,0,9.1,1.4h2v-5.3h3.1v-.2h.9v-.6h.9v.8h3.4v-1.7h-.8v-.9H179v.9h-2.6v-.2h-2.9v-.6l-4.1.2v-1.4h3.5v-.8H179v-.9h.9V128h1.7v.9h.9v.9h3.4V128h.9v-.8h1.7v1.7h.9v.9H192v-.9h.9V128h-1.8v-1.7h1.8v.9h1.7v-.9h2.6v-.9h2.6v.9h2.6v-.9h1.8v-.9h1.7v.9h4.4v-.9h2.6v.9h4.3v-.9h.9v-.8h1.7v.8h.9v.9h.8v.9h2.7v-1.8h.8v-.8h1.8v.8h.8v1.8h2.6v.9h.9v-3.5h2.6v.8h2.6v.9h.9v-.9h.9v-.8h2.6v2.6h-5.3v.9h1.8v1.4h-26c-2,1.4-9.5,1.5-12.5,2.2a112.6,112.6,0,0,0-16.1,5.3c-1.9.8-4.3.9-5.7,2.1h-.5l.7.3-.7.5h-.5a6.1,6.1,0,0,0,2.2.3h-.9v1.8h-.8v.8l-1.7-.8-.3.8h-.2c-.9,2.5-1.1,5.2-1.9,8-2.1,7-3.2,14.3-5.3,21.6-4.5,16.1-7.8,33.2-12.4,49.4-2.1,7.3-2.9,14.3-5.1,21.6-2.9,9.7-4.9,20.3-7.7,30-1.3,4.7-1.7,9.1-3.1,13.7s-2.1,9.7-3.6,14.6c-.8,2.8-2,6-2.3,9.2-3.4.2-6.7,1.3-9.7,2.1s-9.1,1.7-13.4,2.9c-2.7.7-5.3,1-7.7,1.7l-2.9.4L66.5,361c-1.4.7-3.4.3-5.1.7-4.5,1.1-9.4,1.2-14.1,2.4-7.7,1.9-16.4,2.3-24,4.3l-4.3.5c-3.2.8-6.7.8-10.1,1.7A36.9,36.9,0,0,1,.5,372a3.8,3.8,0,0,0,1.7.6H0a3.8,3.8,0,0,0,1.8.6v.4h10l4.8.2H18l5-.2H430a53.7,53.7,0,0,1,9,.7h1.9l11.3-.2h3.9a5.4,5.4,0,0,0,2.5-.4h.5A4.8,4.8,0,0,0,456.9,373.4Zm-145-252.3h.9v.4l-.9.6Zm-7.8,0h.8v-.9h.9v.9h.9v1.7h-2.6ZM150.5,9.8V8.2h.1C150.6,8.7,150.5,9.2,150.5,9.8Zm.4.8c0-.8.1-1.6.1-2.4h.2Zm.5,0V8.2h.3Zm.7-1.5a7.7,7.7,0,0,0-.2,1.5V8.2h.2ZM151,7.9V7.4h2.6Zm9.7,114H159v-1.7h1.7Zm17.9,11.4Zm-.5,0Zm-1.7-.1h0Zm58.2,1.8h1.7v.9h-1.7Zm-3.5,128.9h2.6v.9h.9v.9h-3.5ZM228.5,135h1.7v.9h-1.7Zm-3.5-3.1h.9v.6H225Zm-3.5,3.1h.9v.9h-.9Zm-3.4-2.8h1.7v.3h-1.7Zm0,82.9h.8v1.8h-.8Zm-3.5,9.6h.9v.9h.8v1.7h-1.7Zm-.9,14.8h.9v-.8h.9v1.7h-1.8Zm-6.1-105.4h.9v.9h.9v.9h-1.8Zm0,7h.9v1.7h-.9Zm0,98.4h1.8v.9h-1.8Zm-3.4-101h1.7v.8H205v1.8h-.8v.9h-.9v-2.7h.9Zm.8,6.1v1.7h-1.7v-2.6h.9v.9Zm-12.1-9,1-.2,1.6-.4h4.3v-.8h2.6v.9h.9v.9h-1.7v.8h-.9v-.8H199v.8h-6.1Zm9.5,5.5v2.6h-2.6v-2.6Zm-3.4,3.5v1.7h-2.6v-2.6h.8v.9Zm-.9-3.5v-.9h-1.7v-1.7h.8v-.9h.9v.9h.9v2.6Zm-9.6-4,1-.4h1.6v.9h.9v.9h.9v2.6h2.6v2.6h-2.6v-2.6h-1.8v-.9h-.8v-.9h-.9v-1.7h-.9Zm6.1,11.8v.9h-.8v-.9Zm-2.6-3.5v.9h-.9v.9h-.8v-1.8Zm-6.1-3.4h.9v-.9h1.7v1.7h-.8v.9h-.9v-.9h-.9Zm1.8,111.5v-.9h.8v1.7h-1.7v-.8Zm-.9-6.1v-.9h.9v.9Zm-3.5-102h1.8v.9h-1.8Zm0,7h.9v.9h-.9Zm0,110.7h.9v.8h.9v1.8h-1.8ZM179,142h.9v-.9h.8v.9h.9v1.7h-2.3l-.3-.3Zm.9,7.8v-1.7h.8v.8h.9v.9Zm.8,117.6v.9h-.8v-.9Zm-7.8,0h.9v.9h-.9Zm-3.5,10.5h.9v.8h-.9Zm-3.4,3.5h1.7v.8H166Zm-4.4,4.3h.9v-.9h1.7v.9h-.9v.9h-1.7Zm-2.2-39.2h.5v.9h-.7C159.3,247.1,159.3,246.8,159.4,246.5Zm-.4,7h.9v.8H159Zm0,27.9h.9v.8H159ZM156.1,257h.3v.8h-.5A2.4,2.4,0,0,0,156.1,257Zm-4.9,31.3h.9v-.8h.8v.8h.9v.9h-.9v.9h-.8v-.9h-.9Zm-2.6-3.5h1.7v.9h-1.7Zm-3.5,17.5h.9v-.9h.8v.9h.9v2.6h2.6v2.6h-1.7v-.9h-.9v-.9h-.9V304H146v-.9h-.9Zm0,6.1h.9v.8h.8v.9h-1.7Zm-15.6,17.4v1.7h-.9v.9h-1.7v-2.6H126v-.9h.9v.9Zm-5.2-2.6H126v.8h-.9v.9h-.8Zm-.9,6.1H126v2.6h-1.7V331h-.9Zm-2.6-3.5h1.7v1.7h-.8v.9h-.9Zm-.9,7h2.6v2.6h-2.6Zm0,7.8h.9v-.9h1.7v1.8h-.8v.8h-.9v-.8h-.9Zm-2.6-4.4h.9v.9h.8v1.8h-1.7Zm-.9,7h1.8v.9h.8v.8h-.8v.9h-.9v-.9h-.9Zm63.5,20.2h-1.8v-.2h-2.6v-1.7h.9v-.9h.8v.9h.9v.9h.9v.8h.9Zm5.2-.2h-2.6v-1.7h.8v-.9h.9v.9h.9Zm6.9,0h-2.6v-1.7H192Zm3.5-40.2h-2.6v-1.6h.9v.9h1.7Zm3.5,39.4h-.9v.8h-.9v-1.7H199Zm24.3-44.8h-1.8v-.4h-2.6v-2.6h-1.7v-.9h-.9v3.5h-.8v.8h-.9v-.8h-.9v-2.6h.9v-1.8h2.6v-.9h2.6v.9h3.5Zm-5.2-8.4v.9h-1.8v.9h-1.7v-.9h-.9v-.9h.9v-.8h1.7v.8Zm5.2,1.8h-2.6v-.9h-.9v-.9h.9v-.8h2.6Zm0-3.5h-9.6v.9h-.8v1.7h-2.6v-.9h-.9V311h-2.6v-.9h-3.5v.9h.9v.8h1.7v.9h2.6v.9h-.9v.9h.9v.8h.9v-2.6h.9v-.9h2.6v2.7H212v.8h-.9v1.8h-.8v.8h.8v.9h1.8v.9h1.7v2.6h.9v.7h-2.6v-.7H212v-.9h-1.7V323h-4.4v-.7h-1.7v.7H199v-1.6h-2.6v-2.6h-1.8v-.9h-.8v-.8h-.9v-.9h.9v-.9H192v-.8h-1.7v.8h-1.8v2.6h-1.7v.9h-.9v.9h-.8v1.7h1.7v.9h.9v.7h-1.8v-.7h-1.7v-.9h-1.7v-.8h-.9v.8h-.9v.9h.9v.7h-3.5v-.7h-2.6v.9h-.9v.8h-.8v.9h-.9V324h-1.7v-.8h-.9v.8h-1.7v1.8h2.6v1.3a9.4,9.4,0,0,0-1.8,1.2v-.8h-.8v-1.7h-.9v-.9h-2.6v4.4h-.9V331h-.9v1.8h.9v1.7h-.9v.9h-.8v4.3h.8v1.8h-1.7v3.4h-.9v1.8h-.8v6.1h-1.8v4.3h2.6v1.8h-.8v.9h-1.8v-2.7h-.8v2.7h-.9v.8h.9v1.8h4.3v-.9h.9v-.9h.8v.9h.9v.9h4.4v-.9h.8v-.9h.9v.9h.9v.9h.8v.8h1.8v.2H93v-.2H90.4v.2H87.8v-.2H85.2v-.8H86v-.9h1.8v.9h4.3v-.9H93v-.9h.9v.9h5.2v-.9h2.6v.9H106v-.9h2.6v.9h.9v-.9h.9v-.8h-1.8v-.9h-1.7V358h1.7v-.9h2.6v-.8h.9v-.9h.9v-2.6h.8v-.9h.9v-2.6h-.9v-2.6h2.6v3.5h-.8v1.7h-.9v1.8h.9v2.6h2.6v.8h1.7v-2.6H119v-1.7h-.8v-.9h-.9V351h.9v-.8h.8v-.9h.9v-3.5h1.8v-.9h.8v-1.7h.9v-.9h.9v-.8h.8v-1.8h.9v-.8h-1.7V338h-.9v-.9h.9v-.9H126V338h.9v-1.8h.8v-1.7h-.8v-.9h.8v-.8h1.8v-.9h.8v-2.6h.9v-.9h.9v-.9h.8v-2.6h-2.6v-1.7h.9v-.9h.9v.9h.8v1.7h1.8v-1.7h.9v-.9h.8v-.9h-.8v-.8h-.9v-1.8h.9v-.9h-5.3v-1.7h2.6v.9h1.8v-.9h2.6v-.9h3.5v-.8h.8v-1.8h.9v.9h2.6v-.9h1.7v-.9H146V311h3.4v-.9h.9v.9h.9v-.9h.9v-.9h1.7v.9h1.7v-.9h2.6v-.8h2.6v.8h3.5v-.8h13.9v-.9h.9v.9h5.2v-.9h-.9v-2.6h1.8v1.7h-.9v.9h3.5v.9h3.4v-.9h2.7v.9h4.3v-.9h-.9v-.9h-.8v-.9H192v.9h-2.6v-.9h-2.6v-.8h11.3v.8h.9v.9h-.9v.9h4.3v-.9h.9v-.9h2.6v.9h2.6v-.9h2.6v-.8h1.8v.8h5.2v-.8h.8v.8h2.6v.9h1.8Zm-56.5,21.8v.8H166v-.8Zm4.1-23.6h.3v.8h-.9v.9h-.9v-.9h-.8v-.9h.8v-.4l.9.3h.6Zm5.5,1.8v-1.8h1.7v.9h-.9v.9Zm31.2-5.3v-.8h1.8v.8Zm0-30.4v-.9h2.7V270h2.6v.9h.8v.9H212v.8h-.9v-.8Zm.9,2.6v1.7h-.9v-1.7Zm3.5,24.4v.8h-.9v-.8Zm2.6,3.5v-.9h.9v.9Zm6.9.8v-.8h.9v.8Zm4.4,10.5H225v-.9h.9Zm.9-7h-.9v.9H225v-.9h-.8v-.9h2.6Zm0-34H225v-.8h-.8v-.9h-1.8V270h-.9v.9h-1.7v.9h-.9v.8h-.8v-.8h-.9v-.9h-.9V270h5.2v-.8h-.8v-2.7h-4.4v1.8h-2.6v-.9h-4.3v.9h-2.6v-.9h-.9v-.9h-3.5v1.8h-1.7v-.9h-.9v-.9h-1.7v-.8h-.9v-.9h-.8v1.7h-.9v1.8h-.9v.9h-.8v-1.8h-.9v-.9h-3.5v.9h-.9v1.8h-1.7v.8h1.7v.9h.9V270h1.7v.9h.9v.9h4.4v-.9H199v.9h-.9v.8h-.9v-.8h-.8v1.7h-.9v.9h.9V277h6v-.9h.9v.9h5.2v3.5h.9v2.6h-.9v1.7h-.9v2.7h.9v2.6h-1.7v4.3h-.9V297H205v.9h.9v2.6H205v.9h-.8v.8H164.6v.7h-.4v3.6h0v.2h-1.7v-.9h-.9v-.8h-3.5v.8h-.8v.9h-2.6v-.9h-1.8V304h-1.7v-1.7h-.9v-1.8h-2.6V297h.9v.9h1.7v1.7h.9v.9h.9v.9h1.7v-3.5h-.9V297h-1.7v-2.6h-1.8v-.9h-.8v-.8h-.9v-.9h.9v-.9h1.7v2.6h2.6v.9h.9v.9h.9v-4.4h5.2v-.8H159v-2.6h.9v.8h.8v.9h2.6v-.9h1.8v-.8h2.6v.8h.9v.9H172v-.9h.9v-.8h.9v.8h2.6v-.8h4.3v-.9h1.8v-.9h.8v-.9h1.8v.9h4.3V284h-2.6v-.9h-2.6v-.9h-1.7v.9h-5.3v1.7h-.8V284H172v.8h-.8v.9h-2.6v-.9h-.9v.9h-2.6v-.9h1.7V284h3.5v-.9h2.6v-1.7h1.7v.8h.9v-.8h.9v-1.8h-.9v-1.7h.9V277h.8v-2.6h.9v-.9h.9v-.9h1.7v-1.7h.9v-1.7h2.6v-.9h1.7v-1.8h.9v-.8h.9v-1.8h.8v-1.7h-1.7v-.9h-.9v-.9h.9v-.8h2.6v-5.3h.9v-2.6h-.9v-2.6h.9v-1.7h.8v-2.6h3.5v.8h1.8v-.8h.8v-.9h.9v.9h2.6v.8h1.7v-.8h1.8v-.9h1.7v.9h1.7v-.9h2.7V243h2.6v.9h.8v.9h.9v.8h-.9v1.8h-.8v4.3H212v.9h-.9v1.7h-.8v.9h.8V257h-1.7v.8h-.9V257h-.9v.8h-.8v.9h1.7v.9h.9v1.7h-.9v.9h-1.7v-1.8H205v.9h-.8v-2.6h-.9V257h-.9v.8h-.8v1.8h.8v1.7h.9v.9h.9v.9h1.7v3.4H212v-.8h6.1v-1.8h1.7v1.8h2.6v.8h.9v1.8h.9v.9h1.7v.8h.9Zm-20.9-1.7v.9h-1.7v-.9Zm20.9-4.4v-.8h-2.6v-1.8h2.6v.9h.8v1.7h2.6v1.8h.9v.9h-3.5v-2.7Zm6.9,6.1h-2.6v-1.7h.9V270h.8v.9h.9Zm2.6,2.7h-.9v-1.8h.9Zm.9-7h-2.6v-.9h.8v-.9h.9v.9h.9Zm3.5,4.3h-1.8v-.8h-.8v-.9h.8V270h.9v.9h.9Zm0-7.8h-.9v.9h-.9v-.9h-.8v-.9h.8v-.8h1.8Zm56.4-144.6h2.6v1.7h-.8v.9H298v-.9h-.9Zm-6.9,0h2.6v1.7h-2.6Zm-2.6-2.6h1.7v1.7h-1.7Zm-.9,153.3V270h1.7v.9h.9v1.7h-1.7v-.8h-7.9v-.9H278V270h4.4v.9Zm-.9-150.7v1.7h-1.7v-.8h-.9v-.9h-.8v-.9h-1.8v-1.7h1.8v1.7h.8v.9Zm-6.9-59.3h3.5v1.8h-2.7v-.9h-.8Zm0,61H278v.9h-.9v-2.6h.9v.9h.9Zm-1.8-6.1v-1.7h.9v1.7Zm-.8-56.6h.8v-.9h.9v1.8h-1.7Zm-16.5-4.4h1.7v.9h-.9v.9h-.8Zm-7,0h1.8v1.8h-1.8Zm-6.9,0h1.7v1.8h-1.7Zm-4.4,3.5h2.6v.9h.9v.9h.9v.8h1.7v.9h-.9v.9h-.8V60.9h-2.6v-.8h-1.8Zm-2.6-3.5h1.8v1.8h-1.8Zm-3.5,3.5h1.8v.9h.9v.9h-2.7Zm-6.9,27.9h.9v.9h-.9Zm-8.7-26.1h.9v-.9h.8v-.9h.9v.9h1.8v.9h-.9v.8h-3.5Zm2.6,33.1V94h-.9v-.8ZM211.1,54.8h.9v.9h-.9Zm-6.9,0h.8v1.8h-.8Zm-17.4,3.5h.9v1.8h-.9Zm-4.4-54h.2v.5h-.1V4.4Zm-2.5,53.2h.8v1.7h-.8Zm0,62.7h.8v.9h-.8Zm-4.4-58.4h.9v-.9h1.7v1.8h-2.6Zm0,55.8h2.6v1.7h-1.7v-.9h-.9Zm-6.1-55.8h1.8v.9h-1.8Zm0,55.8h1.8v1.7h-1.8Zm-2.6,4.3H166v-1.7h.8Zm7,7h-.9V128h.9Zm11.3-4.4h-.9v.9h-.9v-.9h-.8v-.8h-1.8v.8h-2.6v.9h-2.6v-.9h-4.3v.9h-2.6v-.9h-.9v-.8H172v-.9h.9v-1.7h.9v.8h.8v.9h5.3v-.9h.8v.9h2.6v.9h1.8Zm0-5.2h-2.6v-1.7h2.6Zm0-49.6h-1.8V67.9h1.8Zm6.9,49.6h-1.7v-.9h-.9v-.8H192Zm0-57.5v.9h-.9v.9h-.8v-.9h-7.8v-.9h-.9v-.9h6.9v-.8h1.8v.8h2.6v-.8h.9V58.3h.8v1.8h6.1V58.3h1.7v.9h.9v.9H205v-.9h1.8v-.9h2.6v.9h.9v-.9H212v.9h.9v-.9h.8v-.8h2.6v1.7h.9v.9h.9v.8H212v.9h-.9v-.9h-5.2v.9H205v.9h-.8v-.9H199v.9h-2.6v-.9Zm23.5,3.5v.9h-.9v-.9Zm-20.9,57.5h-.8v-1.7h.8Zm7.8-.9h-1.7v-.8h1.7Zm7,0h-2.6v-1.7h2.6Zm7.8,0h-3.5v-1.7h2.6v.9h.9Zm13.9,0h-1.7v.9h-.9v-.9h-6.1v.9h-.9v-.9h-2.6v-.8h1.8v-.9h2.6v.9h4.3v-.9h2.6v.9h.9Zm1.7,0H232v-.8h.8Zm4.4,0h-.9v.9h-.9v-.9h-.8v-.8h2.6Zm6.1,152.5h-.9v-.9h.9Zm4.3-1.8h-1.7v-1.7h1.7Zm-2.6-7.8v-.9h1.7v.9Zm6.1-142h-1.8v-1.7h-.8v-.9h-1.8v-.9h-2.6v2.6h-.8v.9h-.9v-.9h-.9v-.8h.9v-.9h-2.6v-.9H229.4v-.9h-3.5v.9H225v-.9h-6.1v.9h-.8v-.9H212v.9h-.9v-.9H205v.9h-.8v-.9H199v.9h-1.8v-.9h-.8v-.8h.8v-.9h.9v.9h4.3v-.9h6.1v-.9H212v.9h2.6v-2.6h.9v1.7h2.6v.9h4.3v-.9h-.9v-1.7h.9v1.7H225v.9h1.8v.9h3.4v-.9h-.8v-.9h-.9v-1.7h.9v1.7H232v.9h4.3v-.9h5.2v-1.7h2.6v2.6h3.5v1.7h.9v.9h.8v.9h1.8ZM258,268.3h-1.7v-.9H258Zm0-132.4h-1.7v-1.8h.9v.9h.8Zm0-13.1h-1.7v-.9h-.9v-1.7h-1.7v-.9h-1.8v-2.6h2.7v2.6h.8v.9H258Zm0-49.7h-1.7v-.8H258Zm0-6.9h-1.7V64.4H258Zm-3.4-5.3v.9h-.9v.9h-.9v-.9h-.9v-.9h-1.7v-.8h-1.7V58.3h2.6v.9h.8v.9h1.8v.8h.9v-.8h.8V58.3H258v.9h.9v.9h1.7v.8h.9v1.8h-1.7v-.9H258v-.9Zm5.2,16.6v-.9h-.9v-.8h.9v-.9h.8v2.6Zm.8,4.4v1.7h-.8V81.9Zm-1.7-12.2v-.9h1.7v.9Zm2.6,55.7h-1.7v-1.7h1.7ZM265,268.3h-.9v.9h-.9v-.9h-.8v-.9H265Zm0-132.4h-.9v.8h-.9v-.8h-.8V135H265Zm0-13.1h-1.8v-.9h-.8v-1.7h-.9v-.9h-1.7v-.9h-.9v-.8h.9v-.9h.8v.9h.9v1.7h.9v.9H265Zm3.5,2.6h-1.8v-1.7h1.8Zm0-6.1h-2.7v-.9h.9v-.8h1.8Zm0-56.6h-2.7v-.9H265v-.9h-.9v-.8h-1.7V58.3h.8v-.8H265v1.7h.8v.9h.9v.8h1.8Zm3.4,206.5h-1.7v-1.8h1.7Zm0-147.3h-.8v.9h-1.8v-2.6h2.6Zm-1.7-6.1v-1.7h.9v1.7Zm.9-54.9v-.8h-1.8V58.3h.9v-.8h.9v.8h.8v.9h.9v.9h.9v.8h1.7v1.8h-2.6v-.9h-.9v-.9Zm3.4,56.7v1.7h-.8v-1.7Zm27.8,157.7h-1.7v.8h-3.5v-.8h-3.5v.8h-3.4v-.8h-3.5v.8h-3.5v-.8h-6.1v-.9h-.8v-.9h-1.8v-.9h-1.7v-.8h.9V270h1.7v2.6h3.5v.9h13.9v.9H298v-.9h.9v.9h3.4Zm4.4.8h-2.6v-1.7h2.6Zm2.6,2.6h-.9v-.8h.9Z"/>
</svg>
