<svg xmlns="http://www.w3.org/2000/svg" viewBox="0 0 254 119">
    <path id="svg_def-title_arknights" fill-rule="evenodd" fill="#000"
          d="M252.707 55.849c-.711-.216-1.421-.44-2.13-.66-.154-.047-.307-.091-.461-.137a61.773 61.773 0 01-2.292-.737c-.759-.261-1.534-.477-2.286-.762-.374-.141-.767-.234-1.149-.356-.478-.154-.95-.325-1.428-.472-2.041-.625-4.055-1.335-6.09-1.978-.403-.128-.798-.283-1.202-.412-.382-.123-.771-.227-1.156-.338-.079-.023-.162-.03-.235-.06-1.48-.578-3.015-.991-4.518-1.497l-.95-.324-.066-2.793c.17.031.349.045.516.101.454.154.901.335 1.356.49.341.117.691.205 1.035.315.479.151.953.311 1.432.465 1.125.364 2.251.73 3.378 1.09.593.189 1.188.373 1.78.56.573.182 1.145.376 1.714.572 1.289.443 2.581.882 3.885 1.278.672.204 1.337.428 2.008.631.694.211 1.38.443 2.068.675.669.225 1.331.469 2.001.689.267.086.553.111.821.196.725.232 1.444.481 2.167.726.056.018.103.059.164.096v2.699c-.139-.021-.256-.024-.362-.057zM211.38 44.452c-.35.478-.776.899-1.29 1.231-.375.242-.759.475-1.165.615-.772.268-1.571.352-2.353-.029a1.658 1.658 0 01-.745-.686 3.808 3.808 0 01-.286-.602c-.234-.688-.51-1.364-.585-2.097-.011-.118-.067-.231-.106-.346-.038-.114-.1-.225-.117-.343-.163-1.109-.615-2.135-.916-3.204-.394-1.402-.867-2.782-1.244-4.188-.257-.955-.567-1.892-.852-2.837-.122-.405-.231-.814-.361-1.216-.111-.344-.242-.68-.369-1.018-.239-.638-.481-1.276-.722-1.913l.088-.096c.263.136.527.262.784.408.379.215.748.452 1.145.636.252.117.476.287.719.423 1.221.684 2.434 1.384 3.53 2.272.366.296.714.632 1.143.857.083.043.14.141.208.216.082.089.143.221.243.266.405.184.642.545.93.849.685.723 1.327 1.486 1.859 2.332.257.408.502.828.684 1.272.231.56.395 1.147.576 1.727.047.151.05.318.066.477.044.381.09.761.125 1.144a2.3 2.3 0 01-.004.423c-.058.662-.098 1.326-.3 1.969-.164.519-.373 1.027-.685 1.458zm15.27-15.46c-.09.275-.12.551-.121.837-.002.199-.042.398-.062.597-.014.141-.034.281-.038.421-.013.403.022.804-.091 1.205-.057.206-.014.443-.014.666v41.993c-.193.25-.345.459-.511.657a33.293 33.293 0 00-1.233 1.537c-.523.702-1.102 1.354-1.608 2.069-.4.564-.879 1.079-1.309 1.627-.562.722-1.119 1.449-1.686 2.167-.321.405-.663.793-.989 1.193-.303.371-.59.755-.896 1.124-.225.275-.447.558-.662.847-.141.192-.302.371-.438.569-.279.415-.602.793-.925 1.17-.275.315-.501.668-.76.995-.196.247-.453.427-.6.718-.171-.16-.053-.296-.024-.415.081-.339.17-.672-.07-.986-.223-.996-.785-1.834-1.261-2.712-.101-.189-.277-.338-.418-.506-.131-.154-.264-.306-.395-.458-.13-.152-.255-.308-.396-.449-.125-.13-.264-.237-.34-.417-.052-.122-.174-.218-.273-.315-.201-.195-.436-.349-.544-.635-.044-.12-.194-.2-.298-.294-.136-.121-.285-.227-.34-.416-.011-.039-.029-.084-.058-.103-.417-.268-.601-.749-.977-1.054-.139-.113-.282-.225-.334-.418-.02-.07-.091-.132-.149-.186-.221-.205-.472-.375-.584-.68-.032-.085-.14-.141-.213-.21-.201-.194-.443-.343-.545-.634-.043-.119-.185-.211-.296-.297-.322-.251-.533-.599-.772-.92-.041-.055-.05-.136-.078-.213.072-.006.113-.023.141-.01.348.161.695.32 1.037.492 1.022.516 2.028 1.066 3.066 1.549.765.356 1.566.627 2.354.936.262.103.53.194.787.31a5.808 5.808 0 002.224.492c.366.012 1.087-.315 1.314-.645.17-.247.329-.518.413-.803a6.41 6.41 0 00.257-1.306c.054-.686.059-1.375.059-2.064 0-1.012-.035-2.025-.035-3.037-.004-5.448-.003-10.897-.003-16.345 0-.302-.015-.597-.096-.899-.135-.514-.405-.881-.843-1.186-.503-.349-1.05-.564-1.616-.756-.36-.122-.721-.251-1.083-.369-1.782-.579-3.59-1.082-5.359-1.703-1.256-.442-2.526-.846-3.79-1.268-.65-.216-1.295-.443-1.947-.653-.555-.178-1.117-.331-1.673-.505-.459-.143-.904-.34-1.371-.437-.657-.136-1.245-.471-1.897-.613-.301-.064-.586-.108-.883.04-.29.144-.474.387-.614.646-.16.3-.275.627-.266.984.004.344-.015.689-.028 1.033-.015.342.018.69-.111 1.02-.015.036-.012.079-.015.12-.037.603-.064 1.206-.113 1.808-.026.321-.099.639-.132.959-.075.705-.134 1.411-.211 2.115-.068.624-.129 1.249-.233 1.866a98.982 98.982 0 01-.551 2.904c-.128.653-.231 1.316-.43 1.947-.194.614-.266 1.263-.545 1.85a.83.83 0 00-.065.169c-.241 1.133-.748 2.169-1.198 3.222-.301.7-.662 1.38-1.058 2.031-.506.833-1.006 1.679-1.687 2.393-.163.4-.595.59-.766.993-.049.119-.202.193-.304.291-.201.199-.396.403-.601.597-.101.096-.213.179-.323.265-.062.048-.144.078-.191.137-.316.398-.751.65-1.131.972-.671.571-1.398 1.06-2.128 1.549-.5.335-1.035.605-1.599.813-.327.121-.477.115-.904.027.041-.095.072-.188.119-.27.519-.905 1.043-1.807 1.559-2.713.089-.156.148-.33.216-.498.303-.746.609-1.489.898-2.239.242-.636.525-1.262.621-1.949.039-.28.141-.542.266-.802a6.381 6.381 0 00.56-1.909c.03-.241.082-.48.142-.714.351-1.351.711-2.7 1.062-4.052.054-.214.081-.438.1-.658.096-1.09.185-2.181.282-3.268.024-.261.076-.519.116-.777.012-.08.028-.159.032-.24.045-.806.15-1.603.268-2.401.09-.618.095-1.252.109-1.878.018-.606-.016-1.215-.002-1.823.013-.483.068-.965.099-1.448.013-.182.009-.366.015-.548.01-.341-.039-.687.086-1.022.025-.071.015-.16.013-.241-.021-1.112-.048-2.226-.063-3.34-.009-.537-.305-.881-.708-1.184-.492-.368-1.054-.566-1.617-.766-.757-.27-1.52-.531-2.281-.795-.057-.02-.116-.031-.175-.048-.849-.247-1.7-.494-2.548-.745-.077-.021-.148-.062-.239-.103-.074-.477-.049-.954-.016-1.484.212.045.386.064.554.116 1.167.371 2.336.752 3.507 1.123.438.139.882.256 1.324.384.117.034.231.071.345.113.151.056.303.112.451.177.562.244 1.057.204 1.468-.385v-2.923-2.918-2.976-2.978-2.978-2.916-2.978-2.977c0-.972-.002-1.944 0-2.916 0-.986-.009-1.972.005-2.924.163-.094.261-.067.325.022.334.474.767.865 1.094 1.347.202.293.479.532.711.806.244.289.465.596.708.883.22.258.423.532.654.776.422.451.741.991 1.212 1.399.27.597.914.828 1.289 1.324.329.104.513.38.714.628.181.224.512.257.644.533.574.392 1.074.904 1.818 1.009.744.105 1.39-.269 1.551-.994.103-.471.204-.944.185-1.439-.018-.484.037-.97.059-1.455.001-.019.011-.042.006-.06-.161-.631.015-1.291-.143-1.923-.025-.097-.027-.2-.031-.301-.047-1.07-.092-2.14-.143-3.21-.019-.382 0-.764-.115-1.141-.058-.186-.017-.403-.021-.605-.009-.302.016-.601-.082-.9-.054-.166-.019-.362-.025-.544-.009-.34-.002-.674-.103-1.017-.107-.361-.019-.753-.042-1.181.142.037.23.034.283.076.709.577 1.371 1.206 2.124 1.731.307.214.555.51.839.759.104.09.25.136.347.231.869.838 1.884 1.474 2.885 2.132.94.615 1.868 1.248 2.797 1.88.426.292.842.597 1.236.937.587.508.672 1.235.247 1.885-.24.366-.606.575-.91.859-.261.243-.55.459-.841.666-.291.208-.579.415-.853.653-.508.442-1.079.812-1.613 1.223-.696.532-1.393 1.063-2.069 1.618-.39.322-.629.732-.491 1.277.034.136.042.279.062.421.411.375.858.648 1.395.808 1.019.306 2.011.702 3.036.987.658.185 1.303.414 1.954.619.977.308 1.947.633 2.924.943.438.139.861.338 1.326.381.079.007.156.043.233.071l1.554.582c.068.456.021.934.029 1.453-.324-.1-.588-.194-.858-.259a4.802 4.802 0 01-.797-.272c-.366-.158-.769-.229-1.153-.349-.824-.257-1.647-.516-2.468-.783-.706-.231-1.407-.481-2.114-.712-.744-.243-1.493-.475-2.239-.714l-3.504-1.124c-.918-.297-1.846-.569-2.748-.906-.423-1.056-.838-.289-1.284-.303-.447-.014-.811.135-1.06.548-.184.302-.259.615-.324.96-.138.723-.05 1.455-.144 2.17-.131.992-.081 1.98-.084 2.97-.014 3.97-.019 7.94-.025 11.91 0 .728-.017 1.459.129 2.179.028.139.06.276.088.415.155.778.689 1.243 1.328 1.623.454.272.967.392 1.461.557 1.487.498 2.977.982 4.469 1.464.86.28 1.715.581 2.588.816 1.367.367 2.681.886 4.023 1.329.133.045.264.102.401.13 1.109.231 2.148.687 3.223 1.022.439.138.864.329 1.33.379.114.013.224.08.337.119.228.075.453.172.687.218.525.102.857-.061 1.104-.528a.728.728 0 00.065-.289c.01-.182.004-.365.004-.547 0-6.461-.004-12.922.008-19.383.001-.634-.153-1.24-.206-1.86-.047-.541-.113-1.08-.172-1.644.26-.099.504-.105.739-.12 1.551-.097 3.103-.187 4.655-.284 1.008-.063 2.014-.133 3.022-.195.277-.018.559-.068.874-.002-.007.131.004.248-.021.358-.058.277-.12.555-.205.824zm-43.421 23.435c.23.188.501.326.711.53.389.379.837.682 1.25 1.028.203.171.195.422.327.665-.128.049-.212.097-.305.113-.582.107-1.166.065-1.75.021-.098-.007-.194-.051-.289-.085-.131-.047-.259-.114-.394-.152-1.145-.311-2.261-.718-3.388-1.088-.82-.268-1.655-.488-2.478-.754-.883-.285-1.755-.603-2.636-.896-.707-.234-1.419-.451-2.128-.677-.48-.153-.958-.309-1.436-.463-1.475-.472-2.947-.951-4.424-1.416-1.072-.336-2.155-.641-3.227-.98-.749-.238-1.485-.519-2.233-.766-1.032-.34-2.068-.669-3.106-.995-.549-.171-1.137.064-1.489.525-.248.324-.303.695-.357 1.074-.014.099-.002.202-.004.303l-.058 2.79c-.004.141-.028.282-.037.424-.02.322-.049.644-.052.966-.005.343-.126.615-.132 1.011-.049.101-.038.237-.042.358-.03.83-.024 1.663-.099 2.488-.052.556-.174 1.132-.2 1.671a1.207 1.207 0 00-.03.421c.048.381.117.759.177 1.137.047.295.194.52.437.699.194.141.356.322.539.474.381.317.851.456 1.306.604.861.281 1.705.607 2.585.835.854.222 1.682.548 2.523.821 1.301.422 2.643.789 3.965 1.215.023.414.005.909.023 1.603-.13-.015-.198-.006-.305-.039-2.5-.794-5.004-1.576-7.495-2.4-.797-.264-1.609-.494-2.388-.822-.609-.256-1.267.002-1.597.59a2.788 2.788 0 00-.296.791c-.157.771-.369 1.534-.389 2.33-.002.098-.034.197-.055.297-.18.911-.395 1.815-.555 2.731-.15.851-.39 1.686-.6 2.526-.156.622-.326 1.241-.492 1.86-.048.176-.111.346-.165.52-.167.54-.328 1.08-.498 1.619a4.233 4.233 0 01-.152.392c-.039.093-.103.177-.131.272-.382 1.344-.997 2.592-1.562 3.861-.279.626-.617 1.22-.938 1.824-.64 1.211-1.403 2.333-2.185 3.448-.33.471-.666.939-1.081 1.344-.186.181-.251.45-.48.609-.211.149-.412.322-.506.588-.029.083-.14.138-.212.21-.186.184-.375.367-.555.556-.196.2-.343.453-.637.541-.052.015-.094.073-.135.117-.686.758-1.533 1.328-2.331 1.946-.677.526-1.407.988-2.138 1.435-.355.217-.696.463-1.092.621-.35.14-.661.378-.998.558-.479.256-.964.498-1.447.748-.27.138-.538.275-.805.42-.556.298-1.14.517-1.766.605-.231.032-.472.094-.675-.017-.071-.16.018-.225.087-.293.244-.235.521-.431.676-.759.08-.171.283-.282.429-.422.185-.181.39-.332.504-.592.075-.17.268-.294.42-.427.196-.175.36-.368.504-.594.245-.386.559-.728.803-1.116.315-.503.642-1 .965-1.499.218-.333.397-.69.599-1.033.241-.413.448-.842.643-1.278.141-.315.307-.616.459-.923.278-.558.601-1.09.827-1.673.504-1.31 1.162-2.554 1.587-3.899.242-.767.57-1.508.856-2.261.129-.336.267-.671.379-1.013.427-1.281.854-2.562 1.261-3.85.139-.44.181-.914.34-1.344.349-.935.483-1.917.708-2.878.225-.966.428-1.937.64-2.906.022-.098.057-.196.062-.295.065-1.237.365-2.44.524-3.664.09-.7.167-1.401.253-2.102.082-.697.205-1.388.3-2.083.026-.201.017-.406.03-.607l.605-12.51c-.006-.523-.081-1.046-.129-1.627-.356-.133-.654-.251-.959-.357-1.124-.386-2.25-.775-3.378-1.151-.247-.082-.525-.08-.766-.175-1.064-.423-2.176-.703-3.25-1.1-.057-.02-.109-.064-.167-.072-.683-.095-1.291-.435-1.948-.619-.657-.185-1.293-.443-1.945-.65-.649-.206-1.308-.388-1.978-.586-.046-.144-.114-.274-.126-.409-.07-.807-.026-1.614-.012-2.422.27-.103.468.033.669.094 2.487.769 4.971 1.545 7.455 2.321 3.334 1.039 6.667 2.075 9.998 3.122.63.197 1.245.441 1.868.667.622.225 1.265.246 1.912.17.265-.029.6-.444.585-.758-.024-.463-.057-.932-.15-1.384-.12-.573-.281-1.136-.348-1.72-.01-.1-.035-.202-.07-.295-.297-.818-.448-1.676-.656-2.517-.381-1.53-.821-3.044-1.224-4.566-.182-.68-.386-1.355-.551-2.04-.155-.644-.388-1.268-.569-1.906-.219-.773-.415-1.554-.628-2.329-.046-.175-.122-.342-.172-.515-.033-.11-.043-.227-.074-.397.147.049.255.055.324.11.629.496 1.364.834 1.979 1.361.328.281.745.452 1.123.675.703.415 1.401.84 2.052 1.339.363.28.74.54 1.11.813.288.214.537.48.839.662.302.184.522.434.761.679.149.155.356.253.518.397.164.15.302.327.45.491.764.842 1.518 1.685 2.093 2.684.293.51.542 1.038.719 1.584.325 1.002.477 2.044.365 3.111a9.188 9.188 0 01-.765 2.797c-.128.289-.336.545-.525.804-.309.42-.75.711-1.09 1.102-.338.125-.53.419-.769.662-.201.203-.294.425-.24.709.026.139.039.28.055.393.229.322.537.461.872.556.736.209 1.442.503 2.188.685.642.154 1.252.436 1.889.624 1.81.537 3.614 1.098 5.388 1.747.056.021.115.035.175.046.832.169 1.608.518 2.418.759.652.195 1.276.477 1.951.607.333.064.646.223.97.336.338.118.68.23 1.033.351.456-.396.648-.949 1.002-1.381.343-.416.612-.891.915-1.342.357.025.554.317.801.499.573.426 1.08.94 1.658 1.358.628.453 1.177.998 1.814 1.44.424.294.79.671 1.191.999zm-54.57-30.388c-.146 2.997-.127 5.994-.078 8.992.02 1.297.036 2.593.037 3.889.003 9.621.002 19.242.002 28.863v.664c-.687 1.039-1.489 1.903-2.212 2.83a114.03 114.03 0 01-2.154 2.707c-.748.903-1.475 1.825-2.193 2.752-.705.907-1.423 1.807-2.137 2.709-.721.912-1.404 1.858-2.212 2.762-.092-.257.029-.439.067-.624.05-.265.107-.517-.082-.752-.094-.545-.391-1.009-.584-1.516-.173-.455-.48-.725-.911-.892-.019-.008-.038-.013-.058-.019-.747-.234-1.495-.464-2.242-.702-.44-.141-.874-.297-1.314-.44a1840.44 1840.44 0 00-4.698-1.533c-.799-.26-1.6-.516-2.395-.772-.088-.644.064-2.026-.075-2.823.233-.067.432.065.636.131 2.284.736 4.567 1.483 6.852 2.226 1.995.65 3.992 1.298 5.988 1.945.189.061.382.11.597.171.107-.236.064-.459.064-.671l-.086-23.333c-.002-.419-.16-.738-.365-1.06a.568.568 0 00-.227-.193c-.836-.392-1.677-.774-2.566-1.046-2.95-.902-5.869-1.904-8.8-2.863-1.261-.413-2.53-.803-3.796-1.207-.937-.3-1.872-.608-2.81-.91-.535-.172-1.072-.335-1.608-.506a2.97 2.97 0 01-.392-.146c-.483-.236-1.004-.302-1.527-.342-.482-.037-1.128.451-1.302.917-.13.345-.167.7-.166 1.069.005 5.813.004 11.627.004 17.44v6.805c.001.304.014.608.01.911-.014.843.379 1.454 1.057 1.91.185.124.362.259.549.38.1.065.206.128.319.166.817.276 1.636.553 2.459.817.825.265 1.657.514 2.486.771.038.012.075.031.141.059-.099.568.069.891.039 1.389-.144-.013-.262-.007-.368-.038-.927-.274-1.848-.567-2.779-.83-.598-.168-1.209-.292-1.809-.448a9.428 9.428 0 01-.926-.282c-.464-.169-.873-.084-1.251.211-.207.162-.421.317-.61.499-.387.374-.751.772-1.223 1.047-.969 1.009-2.145 1.777-3.173 2.72-.4.368-.841.694-1.265 1.037-.252.202-.524.377-.714.651-.15.217-.416.289-.6.486-.311.331-.696.589-1.027.858-.183-.047-.167-.159-.169-.255-.004-.182-.004-.365-.004-.547V.902c0-.259.007-.518.009-.755.141-.065.181.001.236.064.269.318.549.628.818.947.127.151.227.327.359.473.121.133.248.244.348.407.161.269.426.464.606.736.194.293.528.502.701.804.182.321.492.515.665.843.134.255.403.427.572.686.192.296.499.516.709.801.167.228.384.419.529.644.246.382.61.638.887.984.156.195.413.309.6.484.193.179.321.454.539.567.442.23.676.683 1.111.912.634.333 1.186.815 1.888 1.024.231.068.45.177.679.256.532.182 1.056.397 1.601.527 1.026.245 1.99.67 2.993.97.424.128.837.298 1.262.431.671.21 1.347.403 2.024.603.115.034.233.057.348.096 1.32.442 2.639.885 3.959 1.333.592.201 1.181.413 1.772.617.209.072.419.152.633.203 1.101.258 2.155.662 3.225 1.022.97.326 1.946.638 2.912.975.284.098.539.098.817-.007a3.932 3.932 0 011.36-.236c.178-.002.356-.046.533-.07.12-.015.24-.037.36-.045.564-.034 1.129-.066 1.692-.096 1.574-.083 3.146-.166 4.719-.244.196-.009.401-.069.621.066-.014.166-.017.346-.044.523-.246 1.521-.369 3.055-.442 4.592zm-9.092-.657a8.157 8.157 0 00-.188-1.683 1.39 1.39 0 00-.655-.903c-.271-.166-.585-.269-.889-.371-1.371-.462-2.744-.928-4.125-1.37-2.188-.699-4.362-1.44-6.559-2.117-1.727-.532-3.437-1.123-5.153-1.689-.439-.146-.87-.309-1.331-.395-.234-.044-.457-.15-.687-.229-.456-.158-.907-.343-1.373-.466-.388-.102-.794-.183-1.192-.183-.782-.002-1.289.446-1.393 1.151a9.786 9.786 0 00-.104 1.39c-.006 5.589 0 11.178-.006 16.767 0 .769-.023 1.539-.05 2.308-.032.891-.024 1.782.068 2.67.047.445.131.881.308 1.294.064.146.132.327.255.404.406.253.74.608 1.197.796.504.207 1.02.363 1.533.533.707.234 1.428.421 2.137.648.633.204 1.255.441 1.888.652 1.28.428 2.559.857 3.845 1.266 1.245.397 2.498.768 3.747 1.152.212.066.422.139.633.208 1.61.527 3.227 1.032 4.829 1.589.724.25 1.498.326 2.191.672.018.008.04.01.059.014.62.126.97-.141 1.012-.78.012-.182.007-.364.007-.547-.003-.506-.01-1.012-.01-1.519l.006-21.262zm-41.546 8.25c-.025 1.256-.921 2.512-.921 3.768.898 14.56 0 29.122 0 43.683 0 .182.889.366.901.547.027.369-.106.659-.37.917-.212.207-.394.447-.578.679-.457.575-.912 1.152-1.361 1.731-.341.438-.655.898-1.013 1.323-.385.458-.757.923-1.12 1.399-.411.539-.864 1.046-1.271 1.585-.528.696-1.115 1.344-1.608 2.068-.28.41-.62.777-.935 1.162-.313.383-.668.739-.931 1.156-.16.25-.392.4-.566.617-.275.345-.532.704-.8 1.055-.032.043-.087.067-.178.135.02-.228.002-.417.062-.577.084-.226.06-.439.008-.654-.118-.493-.313-.957-.518-1.421-.209-.476-.523-.839-.912-1.168-.427-.361-.853-.726-1.214-1.163-.162-.196-.403-.323-.599-.493a6.14 6.14 0 01-.431-.423c-.124-.13-.22-.283-.414-.34-.088-.025-.169-.11-.229-.186-.379-.477-.851-.855-1.302-1.255-.211-.186-.402-.396-.607-.59a1.902 1.902 0 00-.234-.185c-.047-.033-.124-.043-.157-.087-.394-.521-.935-.889-1.37-1.367-.052-.056-.079-.135-.146-.256.121 0 .2-.021.262.002.718.266 1.433.538 2.148.809.806.307 1.61.62 2.417.923.83.31 1.658.621 2.495.909.38.13.777.215 1.171.306.89.205 1.65-.302 2.029-1.057.129-.254.203-.527.214-.816.02-.587.067-1.173.068-1.76.004-4.799.003-9.599.003-14.399.001-.466-.088-.919-.194-1.369-.038-.157-.06-.318-.096-.511-.329-.248-.646-.561-1.077-.702-.227-.074-.463-.127-.691-.201-1.603-.528-3.205-1.06-4.81-1.586-.113-.036-.238-.035-.355-.063-.215-.049-.448-.071-.639-.167-.485-.241-1.005-.324-1.522-.362a1.419 1.419 0 00-1.183.494c-.287.321-.493.682-.566 1.119a52.418 52.418 0 01-.414 2.196c-.134.63-.287 1.256-.458 1.877-.254.932-.568 1.846-.854 2.768-.516 1.671-1.326 3.201-2.105 4.748a13.846 13.846 0 01-.94 1.6c-.461.673-1.003 1.291-1.456 1.97-.245.37-.644.602-.822 1.025-.051.119-.197.197-.298.298-.4.399-.799.799-1.197 1.202-.125.129-.232.277-.42.333a.433.433 0 00-.19.143c-.526.64-1.237 1.062-1.878 1.564-.597.468-1.222.906-1.87 1.304a27.08 27.08 0 01-2.514 1.394c-.391.185-.774.324-1.197.373-.034.004-.072-.021-.14-.044.075-.275.236-.497.419-.708.105-.12.21-.239.305-.367.525-.708.992-1.459 1.507-2.172.712-.988 1.227-2.073 1.739-3.166.272-.583.504-1.185.771-1.771.301-.663.457-1.375.72-2.05.348-.902.603-1.835.889-2.757.135-.44.239-.891.342-1.342.077-.333.204-.646.263-.99.146-.853.361-1.695.541-2.545.14-.651.245-1.308.339-1.968.127-.878.381-1.738.576-2.607.054-.235.105-.473.139-.713.136-.979.296-1.954.491-2.923.077-.394.117-.796.164-1.195.094-.778.193-1.556.272-2.337.054-.541.032-1.092.125-1.625.095-.557.018-1.129.181-1.676.011-.038.01-.08.011-.121.039-.827.098-1.652.113-2.48l.168-36.929c0-.239.003-.476.005-.707.228-.066.287.095.373.19a795.28 795.28 0 012.762 3.065c1.287 1.428 2.574 2.854 3.855 4.286.505.562 1.129.979 1.709 1.448.105.085.252.122.385.167 2.736.917 5.472 1.834 8.211 2.743.208.069.433.12.649.121.585.003 1.171-.013 1.755-.048.625-.036 1.246-.119 1.871-.153 1.431-.077 2.863-.137 4.295-.201.116-.005.233.014.384.025l-.075.562c-.23 1.646-.329 3.304-.361 4.964zm-8.262-3.335c-.068-.096-.092-.223-.127-.311-.384-.226-.695-.412-1.008-.592-.157-.091-.31-.199-.478-.255-1.184-.399-2.364-.807-3.559-1.171-.841-.256-1.683-.527-2.59-.469-.488.03-.907.154-1.179.589-.183.292-.335.602-.345.956-.018.445-.025.889-.037 1.333-.01.303.021.615-.04.907-.108.5-.127 1.002-.126 1.508.006 1.821.017 3.642.022 5.463.004 1.072.002 2.145.004 3.217 0 .61.092 1.205.262 1.793.088.297.208.533.434.764.303.306.592.592.108.73 1.05.05 1.201.128 1.324.228.292.233.629.324.977.43.942.285 1.871.613 2.805.924l2.622.876c.076.026.152.052.232.071.481.115.851-.115.928-.601.036-.217.026-.443.026-.666l.001-14.447c0-.445.019-.886-.256-1.277zm-.099 18.862a.481.481 0 00-.137-.196c-.338-.282-.663-.57-1.123-.668-.908-.194-1.789-.491-2.665-.801-.76-.269-1.533-.503-2.289-.788-.6-.228-1.217-.229-1.838-.211a.997.997 0 00-.817.436c-.244.337-.402.695-.403 1.118-.002.222-.019.443-.031.666-.029.504-.072 1.009-.084 1.513l-.328 7.245c-.065.969-.136 1.938-.192 2.908-.026.484-.039.971-.022 1.455.024.695.333 1.245.934 1.608.309.188.619.4.957.511.496.162.978.352 1.464.537.298.114.591.243.892.343.668.222 1.343.423 2.012.642.997.326 1.988.661 2.984.987.427.14.661.022.885-.384.156-.283.155-.581.156-.885v-7.228h-.001c0-2.429-.011-4.858.008-7.288.004-.548-.198-1.025-.362-1.52zm-22.7-27.592v48.809c-.67-.139-1.22-.329-1.773-.506-1.031-.33-2.055-.682-3.082-1.026-.095-.032-.194-.051-.285-.091a6.312 6.312 0 00-1.384-.424c-.158-.03-.313-.086-.464-.139-.915-.315-1.829-.634-2.745-.948-.63-.216-1.261-.429-1.893-.637a11.52 11.52 0 00-.697-.202c-.35-.093-.716-.129-1.027-.342-.047-.033-.112-.047-.17-.961-1.49.532-2.913-.049-4.368-.522-.192-.062-.388-.107-.583-.156-.216-.053-.438-.083-.647-.153-2.662-.881-5.325-1.767-7.984-2.655-.766-.256-1.523-.536-2.29-.787-.63-.205-1.268-.385-1.904-.572-.617-.182-1.225-.391-1.841-.576-.592-.177-1.18-.389-1.772-.587-1.179-.396-2.35-.826-3.545-1.17-1.044-.299-2.056-.698-3.106-.968-.426-.109-.84-.272-1.259-.413L.829 51.426c-.035-.14-.11-.313-.113-.486-.011-.709.001-1.417.008-2.125 0-.036.033-.071.051-.108.254-.088.479.034.699.121.377.15.757.278 1.158.335.041.006.085.006.12.023.52.271 1.09.398 1.644.573.9.283 1.791.595 2.689.886 1.108.359 2.229.679 3.322 1.072.93.334 1.89.549 2.815.899.942.357 1.911.642 2.87.957.939.31 1.877.619 2.818.927.036.013.077.022.115.035.914.315 1.823.641 2.759.889.505.132.996.318 1.494.479.782.253 1.565.505 2.349.753.036.012.078-.005.145-.011.015-.09.042-.184.046-.281.007-.223.003-.446.003-.669V6.244c0-.238.01-.476.016-.697.2-.083.249.066.318.144.897 1.017 1.789 2.037 2.683 3.055l4.879 5.566c.186.212.369.427.571.661-.191.417-.367.822-.563 1.218a1.887 1.887 0 00-.205.872c.006 5.731-.002 11.462.014 17.193.001.658.05 1.33.346 1.947.088.184.195.342.348.485.248.233.461.503.738.813.887.277 1.849.562 2.799.884.361.123.709.101 1.08.075.283-.475.331-1.002.375-1.521l.034-17.738c0-.121-.006-.242 0-.364.034-.564-.538-1.272-1.011-1.454-.502-.192-.986-.438-1.499-.672-.008-.235-.022-.453-.02-.673.001-.195-.032-.398.053-.596.753.175 1.406.533 2.092.804.505.201.998.298 1.529.155.154-.042.319-.051.478-.057.301-.012.598-.049.897-.088.914-.116 1.826-.267 2.752-.301.139-.005.276-.048.417-.066.578-.076 1.159-.153 1.74-.221.095-.011.193.014.303.025.112.312.103.624.041.91-.07.324-.066.642-.066.964zm-7.709 24.725c0-.565-.139-1.109-.307-1.65-.149-.481-.584-.626-.914-.896-.356-.008-.639-.231-.966-.327-.558-.166-1.103-.392-1.669-.51-.528-.11-1.033.048-1.458.405a.334.334 0 00-.105.144c-.074.272-.152.543-.203.819-.035.177-.008.365-.04.543l.09 17.454c.05.345.164.676.465.88.413.28.82.56 1.319.697.637.174 1.276.371 1.879.64.491.221.965.238 1.458.161.358-.422.455-.904.455-1.424-.001-5.646.001-11.291-.004-16.936zm122.594 58.358c-.148-.236-.256-.494-.403-.729-.127-.201-.282-.385-.432-.573-.112-.142-.234-.275-.351-.413-.116-.137-.222-.283-.35-.409-.185-.183-.407-.324-.501-.593-.036-.104-.158-.178-.246-.261-.202-.193-.442-.343-.545-.634-.042-.119-.192-.2-.294-.297-.174-.165-.383-.295-.461-.548-.027-.087-.125-.155-.197-.224-.234-.218-.502-.399-.631-.72-.048-.118-.204-.188-.301-.291-.108-.117-.2-.245-.298-.371-.035-.047-.053-.119-.099-.148-.384-.241-.598-.643-.894-.964-.407-.445-.824-.881-1.224-1.333-.157-.174-.302-.367-.339-.648.22.003.352.144.515.202.169.059.346.116.503.206.924.531 1.896.968 2.844 1.458.622.322 1.243.646 1.874.955.271.134.558.231.835.35.943.401 1.844.9 2.846 1.158 1.245.323 2.088-.017 2.766-.904.375-.489.581-1.058.714-1.645.182-.804.324-1.617.459-2.431.066-.395.031-.811.123-1.198.162-.694.091-1.406.246-2.101.109-.485.09-.999.131-1.5.054-.662.105-1.323.167-1.984.038-.401.018-.802.088-1.207.094-.552.083-1.121.127-1.684.02-.24.079-.476.095-.715.043-.644.08-1.287.105-1.931.038-.887-.004-1.784.108-2.662.135-1.048.089-2.102.195-3.143.124-1.192.075-2.382.112-3.571.036-1.173.044-2.348.066-3.522.006-.2.018-.4.032-.684 3.144-.158 6.226-.314 9.308-.467.077-.004.154.024.271.043-.019.195-.028.373-.055.548-.1.635-.207 1.27-.308 1.906-.098.615-.199 1.23-.283 1.847-.035.259-.04.524-.047.787l-.495 13.815c-.001.101.012.21-.019.302-.236.706-.152 1.441-.207 2.163-.031.402-.134.717-.437 1.01-.326.316-.561.725-.846 1.083-.332.422-.681.83-1.014 1.249a179.09 179.09 0 00-1.217 1.543c-.316.405-.624.818-.945 1.22-.401.5-.839.966-1.229 1.48-.917 1.208-1.869 2.39-2.801 3.585-.461.589-.909 1.188-1.371 1.777-.335.426-.683.841-1.026 1.261-.287.355-.585.702-.867 1.062-.317.407-.605.838-.935 1.233-.562.669-1.155 1.312-1.679 2.037-.145-.115-.09-.235-.059-.332.12-.377.099-.725-.027-1.117a10.465 10.465 0 00-1.097-2.326zm26.371 18.345H74.919v-9.12h113.297v9.12zm-90.921-3.973a40.74 40.74 0 01-1.122.027c-.249 0-.558-.009-.93-.027a8.008 8.008 0 01-.195.557l.05.053a14.72 14.72 0 012.04 0 3.23 3.23 0 01.189-.552l-.032-.058zm15.915 1.925c-.195-.01-.322-.029-.378-.056a.391.391 0 01-.149-.134c-.043-.063-.13-.247-.26-.554l-1.934-4.512h-.259c-.102.287-.293.746-.575 1.38l-1.051 2.388a29.73 29.73 0 01-.553 1.193c-.06.125-.115.203-.166.235-.053.032-.168.051-.347.056l-.114.004v.241a15.233 15.233 0 011.792 0v-.241l-.367-.043c-.129-.014-.211-.035-.243-.061-.031-.025-.048-.067-.048-.126 0-.093.087-.343.258-.752l.258-.617h2.21l.419 1.066c.077.193.115.315.115.36 0 .044-.019.08-.057.108-.024.017-.105.032-.24.041l-.378.024v.241a30.02 30.02 0 011.119-.026c.301 0 .617.008.948.026v-.241zm5.324 0h-.099a.297.297 0 01-.135-.034c-.042-.023-.13-.117-.257-.281l-.736-.955a30.136 30.136 0 01-.928-1.257c.491-.102.866-.291 1.125-.567.259-.276.388-.594.388-.955 0-.245-.06-.456-.178-.632a1.114 1.114 0 00-.519-.405c-.229-.092-.564-.14-1.003-.14-.163 0-.426.007-.791.02-.316.013-.559.019-.727.019-.249 0-.611-.009-1.086-.027v.241h.208c.258 0 .412.048.46.142.047.096.07.539.07 1.33v1.845c0 .912-.021 1.416-.062 1.512-.04.096-.17.144-.388.144h-.288v.241c.574-.018.969-.026 1.189-.026.277 0 .627.008 1.051.026v-.241h-.298c-.237 0-.377-.049-.421-.148-.042-.098-.065-.598-.065-1.501v-1.852c0-.462.017-.896.046-1.303a2.33 2.33 0 01.806-.149c.385 0 .681.092.883.277.205.186.306.444.306.773 0 .369-.12.662-.361.881-.24.221-.573.331-.999.331-.072 0-.181-.006-.33-.019l-.037.13c.288.322.559.651.81.989l1.353 1.832c.161-.018.313-.026.459-.026.158 0 .343.008.554.026v-.241zm5.703 0a.89.89 0 01-.247-.024.345.345 0 01-.148-.096l-.236-.225-2.607-2.434 1.459-1.346c.462-.425.757-.672.884-.741a.947.947 0 01.466-.107h.207v-.241a8.294 8.294 0 01-1.33 0v.269l-1.086 1.127a29.49 29.49 0 01-.741.745c-.15.142-.33.299-.539.469h-.054v-1.035c0-.56.007-.898.018-1.015.011-.117.04-.196.085-.237.048-.038.157-.062.332-.07l.304-.012v-.241c-.637.018-1.031.027-1.18.027-.209 0-.547-.009-1.014-.027v.241h.309c.204 0 .326.045.367.133.041.089.06.484.06 1.186v2.565c0 .575-.019.9-.06.976-.041.075-.163.113-.367.113h-.309v.241a23.424 23.424 0 012.194 0v-.241h-.288c-.239 0-.379-.047-.416-.138-.024-.054-.035-.366-.035-.936v-1.169c0-.1.027-.149.079-.149.022 0 .077.042.165.126l2.634 2.507a5.959 5.959 0 011.094 0v-.241zm6.379-5.214c-.376.018-.682.027-.919.027-.225 0-.545-.009-.955-.027v.241l.287.028c.259.024.405.085.441.181.038.096.056.659.056 1.689v2.461a26.923 26.923 0 01-1.019-1.204l-1.309-1.609c-.24-.297-.47-.592-.693-.885a34.338 34.338 0 00-.713-.902 7.429 7.429 0 01-.604.027c-.17 0-.418-.009-.742-.027v.241h.237c.12 0 .212.022.279.066a.499.499 0 01.152.147c.034.055.054.157.059.304.008.351.011.705.011 1.063v1.905c0 .484-.013.865-.041 1.147-.014.135-.045.226-.095.272-.053.045-.161.069-.327.069h-.275v.241c.56-.018.917-.026 1.072-.026.226 0 .477.008.755.026v-.241l-.246-.019c-.202-.019-.325-.048-.366-.086-.043-.04-.074-.151-.09-.332a14.882 14.882 0 01-.035-1.263v-2.65l2.747 3.407c.312.383.609.732.892 1.046.05.056.104.097.16.121.056.024.257.064.604.117a26.854 26.854 0 01-.061-1.668v-1.729c0-1.014.011-1.574.034-1.679.037-.158.172-.238.409-.238h.295v-.241zm2.589 5.214h-.252c-.236 0-.376-.051-.419-.151-.043-.102-.066-.65-.066-1.644v-1.321c0-.701.006-1.188.02-1.462.007-.177.034-.285.081-.329.046-.044.159-.066.342-.066h.294v-.241c-.279.018-.592.027-.937.027-.413 0-.832-.009-1.255-.027v.241h.31c.203 0 .324.052.366.158.041.104.062.669.062 1.691v1.3c0 .986-.024 1.537-.073 1.651-.045.116-.187.173-.425.173h-.24v.241a22.8 22.8 0 012.192 0v-.241zm5.949-1.939a4.758 4.758 0 01-.632.037c-.282 0-.715-.013-1.298-.037v.24l.452.039c.237.021.371.037.398.052.027.013.045.044.055.092.012.048.015.229.015.543 0 .243-.009.473-.023.688-.481.182-.929.273-1.341.273-.793 0-1.418-.28-1.877-.844-.389-.474-.585-1.06-.585-1.755 0-.723.217-1.305.65-1.745.398-.404.971-.605 1.72-.605.423 0 .799.06 1.128.182.328.122.532.224.608.305.04.044.061.19.061.441v.253h.241c.04-.486.092-.864.161-1.135l-.325-.088a8.37 8.37 0 00-.968-.231 5.471 5.471 0 00-.81-.056c-.718 0-1.313.119-1.78.358a2.66 2.66 0 00-1.097 1.004 2.76 2.76 0 00-.395 1.474 2.8 2.8 0 00.366 1.432c.245.421.595.75 1.05.985.455.237.984.355 1.584.355.391 0 .798-.04 1.225-.121.428-.08.81-.187 1.15-.32a6.095 6.095 0 01-.059-.794c0-.222.02-.44.059-.655l.267-.177v-.19zm6.592 1.939h-.297c-.236 0-.375-.045-.419-.136-.046-.091-.068-.529-.068-1.314v-2.12c0-.615.006-.981.018-1.098.011-.116.046-.195.099-.239.056-.044.18-.066.377-.066h.29v-.241a24.11 24.11 0 01-2.285 0v.241h.274c.181 0 .302.024.361.07.057.046.093.122.103.226.03.297.045.664.045 1.102v.749c-.372.018-.855.027-1.448.027-.701 0-1.279-.009-1.732-.027v-.875c0-.543.011-.884.031-1.026.013-.087.047-.149.104-.188.055-.038.202-.058.439-.058h.164v-.241c-.347.018-.702.027-1.067.027a27.5 27.5 0 01-1.172-.027v.241h.281c.236 0 .377.046.427.136.051.092.075.471.075 1.142v2.311c0 .741-.024 1.157-.073 1.248-.05.091-.206.136-.474.136h-.236v.241c.555-.018.981-.026 1.279-.026.309 0 .628.008.96.026v-.241h-.26c-.142 0-.246-.019-.31-.057-.062-.04-.1-.077-.109-.114-.011-.037-.024-.23-.039-.578-.013-.248-.02-.465-.02-.649v-1.071a44.425 44.425 0 011.805-.027c.558 0 1.015.009 1.375.027v.998c0 .504-.014.888-.041 1.151-.014.124-.048.207-.104.253-.055.044-.181.067-.374.067h-.264v.241a24.715 24.715 0 012.285 0v-.241zm2.715-5.187c-.244 0-1.052-.009-2.427-.027.029.346.044.61.044.794l-.007.456h.241l.054-.513c.02-.201.06-.315.125-.344.063-.029.41-.044 1.038-.044h.388c.018.36.027.757.027 1.188v2.189c0 .473-.012.859-.039 1.158-.012.13-.043.217-.095.263-.05.044-.16.067-.329.067h-.321v.241c.443-.018.824-.026 1.14-.026.313 0 .694.008 1.146.026v-.241h-.286c-.251 0-.396-.042-.436-.125-.04-.083-.062-.531-.062-1.343v-2.186c0-.424.015-.828.042-1.211h.299c.356 0 .675.01.955.03.096.008.159.028.188.061.028.031.048.134.065.307l.037.503h.241c.008-.402.036-.817.085-1.25l-2.113.027zm6.074 2.959a.984.984 0 00-.444-.407c-.184-.085-.54-.153-1.064-.204-.524-.049-.868-.107-1.03-.172a.8.8 0 01-.385-.318.934.934 0 01-.144-.525c0-.325.116-.589.349-.797.233-.206.555-.31.961-.31.249 0 .487.04.714.121.225.08.364.156.417.227.054.073.082.208.082.408v.307h.262c.005-.44.044-.793.116-1.058a3.977 3.977 0 00-.77-.252 3.66 3.66 0 00-.768-.082c-.633 0-1.13.158-1.489.475-.359.317-.538.725-.538 1.223 0 .294.057.54.174.737.118.199.279.344.486.436.206.092.597.161 1.173.207.433.036.73.088.891.157a.803.803 0 01.375.316.96.96 0 01.134.52c0 .35-.132.639-.395.866-.262.228-.635.341-1.116.341a2.4 2.4 0 01-.625-.078 1.591 1.591 0 01-.503-.228.536.536 0 01-.179-.188c-.025-.059-.038-.213-.038-.461v-.191h-.261c.003.481-.017.874-.064 1.181.252.097.503.171.752.22.247.05.493.075.738.075.714 0 1.286-.185 1.713-.556.429-.371.643-.814.643-1.327 0-.256-.056-.478-.167-.663zm12.468.303c-.545.018-.918.027-1.122.027-.247 0-.557-.009-.93-.027a7.519 7.519 0 01-.195.557l.05.053a14.75 14.75 0 012.041 0 3.22 3.22 0 01.188-.552l-.032-.058zm-56.823-2.291l.962 2.303h-1.925l.963-2.303zm90.836-59.819c.839.458 1.713.863 2.508 1.391.724.481 1.495.873 2.226 1.336.337.212.65.463.967.704.286.215.546.468.848.655.229.142.425.302.587.511.036.048.074.109.125.129.417.165.634.549.932.843.174.169.343.343.521.507.146.136.287.262.383.454.119.249.444.35.52.648a8.82 8.82 0 011.265 2.099c.352.815.618 1.654.715 2.54.028.26.087.515.097.776.025.747-.115 1.475-.255 2.208-.166.88-.578 1.63-1.068 2.351-.123.183-.27.354-.425.512-.237.247-.471.506-.831.578-.514.391-1.144.454-1.735.625a1.06 1.06 0 01-.359.034 3.384 3.384 0 01-1.582-.54c-.331-.217-.524-.556-.682-.902a9.17 9.17 0 01-.391-1.078c-.102-.325-.175-.66-.259-.992-.03-.117-.05-.237-.085-.353-.247-.812-.499-1.622-.745-2.435-.115-.385-.288-.758-.275-1.175 0-.058-.024-.118-.042-.176-.55-1.818-1.101-3.637-1.655-5.455-.093-.308-.21-.61-.308-.919-.096-.308-.179-.62-.269-.93-.065-.212-.133-.422-.195-.634-.105-.347-.222-.693-.301-1.044a4.878 4.878 0 00-.247-.744c-.222-.557-.406-1.13-.6-1.699-.011-.029.021-.074.044-.146.195.109.381.217.571.321z"/>
</svg>
