<?xml version="1.0" encoding="UTF-8" standalone="no"?>
<!-- Created with Inkscape (http://www.inkscape.org/) -->

<svg
   width="512"
   height="512"
   viewBox="0 0 512 512"
   version="1.1"
   id="svg5"
   inkscape:version="1.2 (dc2aedaf03, 2022-05-15)"
   sodipodi:docname="caster.svg"
   xmlns:inkscape="http://www.inkscape.org/namespaces/inkscape"
   xmlns:sodipodi="http://sodipodi.sourceforge.net/DTD/sodipodi-0.dtd"
   xmlns="http://www.w3.org/2000/svg"
   xmlns:svg="http://www.w3.org/2000/svg">
  <sodipodi:namedview
     id="namedview7"
     pagecolor="#ffffff"
     bordercolor="#999999"
     borderopacity="1"
     inkscape:showpageshadow="0"
     inkscape:pageopacity="0"
     inkscape:pagecheckerboard="0"
     inkscape:deskcolor="#d1d1d1"
     inkscape:document-units="px"
     showgrid="false"
     showguides="true"
     inkscape:zoom="2.1649824"
     inkscape:cx="205.77534"
     inkscape:cy="256.35312"
     inkscape:window-width="2560"
     inkscape:window-height="1377"
     inkscape:window-x="-8"
     inkscape:window-y="-8"
     inkscape:window-maximized="1"
     inkscape:current-layer="svg5" />
  <defs
     id="defs2" />
  <g
     id="g5"
     transform="matrix(17.661263,0,0,17.397805,-5.2983789,-7.8290124)">
    <path
       id="staff-career-caster"
       d="m 28.239,29.879 c -0.296,-0.233 -0.615,-0.484 -0.934,-0.736 -0.048,-0.037 -0.094,-0.078 -0.144,-0.112 -0.127,-0.085 -0.221,-0.178 -0.177,-0.355 0.01,-0.04 -0.043,-0.108 -0.082,-0.147 -1.085,-1.089 -2.171,-2.176 -3.257,-3.264 -1.451,-1.452 -2.9,-2.904 -4.352,-4.354 -0.069,-0.069 -0.148,-0.129 -0.231,-0.18 -0.527,-0.324 -1.056,-0.643 -1.584,-0.965 -0.051,-0.031 -0.102,-0.066 -0.145,-0.108 -0.445,-0.443 -0.888,-0.888 -1.332,-1.332 -0.016,-0.016 -0.03,-0.035 -0.069,-0.082 0.127,-0.108 0.245,-0.208 0.375,-0.319 -0.068,-0.07 -0.114,-0.12 -0.162,-0.168 C 13.728,15.337 11.311,12.916 8.893,10.498 8.822,10.427 8.789,10.357 8.789,10.254 8.793,9.147 8.792,8.04 8.792,6.933 c 0,-0.049 0,-0.097 0,-0.178 0.057,0.052 0.089,0.077 0.117,0.106 0.444,0.444 0.887,0.889 1.333,1.331 0.07,0.069 0.094,0.14 0.093,0.235 -0.004,0.46 -0.005,0.919 0.002,1.379 10e-4,0.066 0.032,0.149 0.078,0.195 2.268,2.277 4.54,4.551 6.812,6.824 0.019,0.02 0.041,0.038 0.101,0.091 0.096,-0.132 0.192,-0.263 0.292,-0.399 0.08,0.074 0.114,0.104 0.147,0.136 0.417,0.417 0.835,0.834 1.251,1.254 0.055,0.056 0.105,0.119 0.146,0.186 0.327,0.536 0.651,1.075 0.978,1.61 0.041,0.068 0.091,0.131 0.147,0.187 2.532,2.537 5.066,5.072 7.597,7.61 0.078,0.079 0.15,0.106 0.259,0.083 0.057,-0.011 0.15,0.005 0.183,0.045 0.328,0.403 0.647,0.814 0.962,1.215 -0.35,0.345 -0.695,0.685 -1.051,1.036 z M 15,0.775 C 13.957,0.865 12.913,0.951 11.87,1.042 10.961,1.121 10.053,1.205 9.145,1.285 8.824,1.313 8.503,1.338 8.155,1.366 8.483,2.422 8.805,3.459 9.139,4.532 9.085,4.494 9.059,4.481 9.04,4.462 7.725,3.147 6.411,1.832 5.098,0.516 5.078,0.497 5.064,0.472 5.047,0.45 c 4.466,0 8.932,0 13.399,0 C 18.387,0.463 18.33,0.483 18.271,0.488 17.181,0.585 16.091,0.681 15,0.775 Z M 4.617,7.946 C 4.542,7.945 4.449,7.911 4.397,7.859 3.869,7.341 3.347,6.816 2.827,6.289 2.785,6.247 2.743,6.181 2.743,6.125 2.738,5.23 2.739,4.334 2.74,3.439 2.74,3.42 2.744,3.402 2.749,3.369 2.799,3.366 2.848,3.361 2.898,3.361 3.75,3.36 4.602,3.358 5.454,3.364 5.527,3.365 5.619,3.403 5.671,3.455 6.196,3.97 6.715,4.491 7.231,5.015 7.279,5.063 7.322,5.141 7.322,5.205 7.328,6.082 7.326,6.959 7.326,7.836 7.326,7.867 7.319,7.899 7.314,7.942 7.259,7.945 7.209,7.949 7.158,7.949 6.311,7.95 5.464,7.952 4.617,7.946 Z M 1.965,2.968 C 1.914,3.021 1.874,3.111 1.873,3.184 c -0.005,1.172 -0.005,2.343 0,3.515 0.001,0.074 0.038,0.166 0.089,0.218 0.582,0.591 1.168,1.177 1.759,1.758 0.052,0.052 0.145,0.087 0.219,0.088 1.249,0.005 2.499,0.003 3.748,0.003 0.06,0 0.12,0 0.188,0 0,0.456 0,0.895 0,1.349 -0.05,0.002 -0.1,0.007 -0.149,0.007 -1.451,0 -2.902,-10e-4 -4.353,0.002 -0.098,0 -0.164,-0.032 -0.232,-0.099 C 2.3,9.178 1.456,8.333 0.61,7.49 0.541,7.421 0.515,7.352 0.515,7.255 0.518,5.713 0.516,4.171 0.52,2.629 0.52,2.561 0.543,2.475 0.587,2.43 1.036,1.971 1.491,1.519 1.945,1.065 1.958,1.052 1.973,1.042 1.993,1.026 2.308,1.346 2.617,1.659 2.935,1.982 2.916,2.003 2.888,2.038 2.856,2.07 2.558,2.368 2.257,2.664 1.965,2.968 Z M 4.35,13.304 C 3.315,12.981 2.281,12.659 1.226,12.331 1.211,12.455 1.194,12.564 1.184,12.673 1.095,13.719 1.008,14.765 0.917,15.81 c -0.079,0.906 -0.163,1.811 -0.242,2.716 -0.09,1.046 -0.177,2.091 -0.266,3.137 -0.024,0.28 -0.048,0.56 -0.074,0.84 -0.004,0.041 -0.023,0.079 -0.035,0.119 0,-4.465 0,-8.929 0,-13.393 0.03,0.02 0.064,0.036 0.089,0.061 1.308,1.308 2.615,2.617 3.923,3.926 0.018,0.018 0.035,0.039 0.038,0.088 z" />
  </g>
</svg>
