<?xml version="1.0" encoding="UTF-8" standalone="no"?>
<!-- Created with Inkscape (http://www.inkscape.org/) -->

<svg
    width="512"
    height="512"
    viewBox="0 0 512 512"
    version="1.1"
    id="svg5"
    inkscape:version="1.2 (dc2aedaf03, 2022-05-15)"
    sodipodi:docname="test.svg"
    xmlns:inkscape="http://www.inkscape.org/namespaces/inkscape"
    xmlns:sodipodi="http://sodipodi.sourceforge.net/DTD/sodipodi-0.dtd"
    xmlns="http://www.w3.org/2000/svg"
    xmlns:svg="http://www.w3.org/2000/svg">
  <sodipodi:namedview
      id="namedview7"
      pagecolor="#ffffff"
      bordercolor="#999999"
      borderopacity="1"
      inkscape:showpageshadow="0"
      inkscape:pageopacity="0"
      inkscape:pagecheckerboard="0"
      inkscape:deskcolor="#d1d1d1"
      inkscape:document-units="px"
      showgrid="false"
      showguides="true"
      inkscape:zoom="2.1649824"
      inkscape:cx="204.85155"
      inkscape:cy="255.89123"
      inkscape:window-width="2560"
      inkscape:window-height="1377"
      inkscape:window-x="-8"
      inkscape:window-y="-8"
      inkscape:window-maximized="1"
      inkscape:current-layer="svg5"/>
  <defs
      id="defs2"/>
  <g
      id="g5"
      transform="matrix(18.011313,0,0,17.743779,-15.80351,-11.938315)">
    <path
        id="staff-career-medic"
        d="m 21.821,13.422 c -0.105,0.06 -0.181,0.069 -0.29,0.004 -0.56,-0.332 -1.124,-0.658 -1.692,-0.976 -0.119,-0.067 -0.157,-0.141 -0.155,-0.275 0.007,-0.651 0.006,-1.301 0,-1.952 -0.001,-0.116 0.031,-0.182 0.136,-0.242 2.173,-1.248 4.344,-2.5 6.515,-3.752 0.048,-0.027 0.096,-0.053 0.158,-0.087 0.664,1.147 1.322,2.284 1.987,3.434 -0.054,0.034 -0.1,0.064 -0.147,0.091 -2.171,1.251 -4.343,2.501 -6.512,3.755 z m 1.71,-7.191 C 23.119,6.224 22.706,6.223 22.294,6.232 22.158,6.235 22.132,6.186 22.133,6.063 22.138,5.268 22.136,4.472 22.136,3.677 22.136,3.49 22.135,3.49 21.942,3.49 c -0.802,0 -1.603,-0.002 -2.405,0.002 -0.114,10e-4 -0.153,-0.03 -0.151,-0.149 0.007,-0.421 0.006,-0.842 0,-1.263 -0.002,-0.113 0.037,-0.142 0.145,-0.141 0.67,0.004 1.341,0.002 2.011,0.002 0.665,0 1.331,0.002 1.996,-0.003 0.116,0 0.153,0.031 0.152,0.15 -0.004,1.328 -0.004,2.657 0,3.986 10e-4,0.125 -0.037,0.159 -0.159,0.157 z m 5.148,14.087 c -0.663,1.145 -1.322,2.285 -1.988,3.436 -0.113,-0.065 -0.214,-0.122 -0.314,-0.18 -3.644,-2.1 -7.289,-4.199 -10.932,-6.302 -0.114,-0.066 -0.195,-0.073 -0.314,-0.004 -3.834,2.213 -7.669,4.421 -11.505,6.63 -0.043,0.026 -0.088,0.05 -0.149,0.083 C 2.814,22.835 2.157,21.699 1.492,20.55 1.543,20.517 1.587,20.485 1.634,20.458 5.478,18.244 9.321,16.03 13.166,13.82 13.271,13.759 13.301,13.69 13.301,13.574 13.298,9.343 13.298,5.112 13.298,0.881 c 0,-0.056 0.006,-0.112 0.01,-0.168 1.322,0 2.644,0 3.966,0 0,4.283 10e-4,8.565 -0.003,12.848 0,0.134 0.039,0.207 0.157,0.275 3.712,2.133 7.421,4.27 11.131,6.406 0.036,0.021 0.07,0.045 0.12,0.076 z M 8.575,3.487 C 8.442,3.486 8.413,3.528 8.413,3.653 c 0.006,0.81 10e-4,1.62 0.006,2.429 0,0.119 -0.035,0.15 -0.151,0.149 C 7.846,6.225 7.424,6.225 7.002,6.23 6.894,6.232 6.857,6.201 6.857,6.088 c 0.004,-1.334 0.004,-2.668 0,-4.001 0,-0.12 0.04,-0.149 0.153,-0.148 1.336,0.003 2.672,0.002 4.008,0.002 0.041,0 0.082,0.005 0.131,0.008 0,0.513 0,1.016 0,1.541 -0.061,0 -0.115,0 -0.169,0 -0.801,0 -1.603,0.003 -2.405,-0.003 z m 2.308,6.773 c -0.01,0.646 -0.007,1.292 -10e-4,1.937 10e-4,0.117 -0.032,0.185 -0.137,0.244 C 10.162,12.77 9.582,13.105 9.004,13.443 8.917,13.495 8.857,13.484 8.776,13.438 6.692,12.234 4.606,11.033 2.521,9.832 2.286,9.696 2.05,9.561 1.815,9.425 1.776,9.402 1.737,9.377 1.689,9.347 2.352,8.201 3.01,7.064 3.674,5.917 3.73,5.946 3.779,5.969 3.826,5.996 c 2.293,1.321 4.584,2.643 6.879,3.959 0.13,0.075 0.18,0.153 0.178,0.305 z m -6.932,1.819 c 0.365,0.366 0.724,0.725 1.089,1.091 -0.619,0.617 -1.261,1.257 -1.909,1.904 0.661,0.654 1.302,1.289 1.932,1.911 -0.38,0.378 -0.74,0.736 -1.113,1.107 C 3.94,18.082 3.902,18.05 3.867,18.016 2.942,17.093 2.017,16.17 1.092,15.248 1.039,15.195 0.984,15.144 0.929,15.093 c 0,-0.01 0,-0.019 0,-0.029 C 0.972,15.03 1.019,14.999 1.057,14.96 1.993,14.028 2.928,13.095 3.863,12.162 3.896,12.13 3.93,12.099 3.951,12.079 Z M 6.859,23.96 c 0.527,0 1.035,0 1.555,0 0,0.906 0,1.803 0,2.726 0.923,0 1.825,0 2.734,0 0,0.523 0,1.031 0,1.555 -0.06,0 -0.11,0 -0.16,0 -1.318,0 -2.635,-0.002 -3.952,0.003 -0.144,0.001 -0.18,-0.039 -0.18,-0.18 0.005,-1.315 0.003,-2.63 0.003,-3.945 0,-0.05 0,-0.1 0,-0.159 z m 6.586,-2.98 c 0.576,-0.324 1.148,-0.655 1.718,-0.987 0.088,-0.052 0.154,-0.054 0.243,-10e-4 0.578,0.339 1.158,0.673 1.741,1.004 0.093,0.053 0.13,0.11 0.13,0.219 -0.003,2.771 -0.003,5.542 -0.003,8.313 -1.322,0 -2.644,0 -3.966,0 -0.004,-0.056 -0.01,-0.112 -0.01,-0.168 0,-2.705 10e-4,-5.411 -0.003,-8.116 0,-0.128 0.037,-0.2 0.15,-0.264 z m 5.951,5.706 c 0.07,0 0.126,0 0.181,0 0.802,0 1.603,-0.003 2.404,0.003 0.125,0.001 0.158,-0.033 0.157,-0.157 -0.005,-0.805 -0.002,-1.61 -0.002,-2.414 0,-0.05 0,-0.1 0,-0.159 0.521,0 1.025,0 1.544,0 0.003,0.055 0.007,0.104 0.007,0.153 10e-4,1.32 -0.001,2.639 0.004,3.959 0,0.133 -0.034,0.174 -0.172,0.173 -1.321,-0.005 -2.643,-0.004 -3.965,-0.001 -0.123,0.001 -0.172,-0.025 -0.169,-0.161 0.009,-0.416 0.003,-0.833 0.004,-1.249 0,-0.041 0.004,-0.083 0.007,-0.147 z m 6.92,-14.59 c 0.99,0.992 1.995,1.997 2.988,2.99 -0.99,0.99 -1.995,1.995 -3,3 -0.352,-0.352 -0.712,-0.712 -1.084,-1.083 0.634,-0.631 1.275,-1.27 1.919,-1.912 -0.647,-0.646 -1.286,-1.283 -1.919,-1.914 0.375,-0.37 0.739,-0.729 1.096,-1.081 z"/>
  </g>
</svg>
