<?xml version="1.0" encoding="UTF-8" standalone="no"?>
<!-- Created with Inkscape (http://www.inkscape.org/) -->

<svg
   width="512"
   height="512"
   viewBox="0 0 512 512"
   version="1.1"
   id="svg5"
   inkscape:version="1.2 (dc2aedaf03, 2022-05-15)"
   sodipodi:docname="pioneer.svg"
   xmlns:inkscape="http://www.inkscape.org/namespaces/inkscape"
   xmlns:sodipodi="http://sodipodi.sourceforge.net/DTD/sodipodi-0.dtd"
   xmlns="http://www.w3.org/2000/svg"
   xmlns:svg="http://www.w3.org/2000/svg">
  <sodipodi:namedview
     id="namedview7"
     pagecolor="#ffffff"
     bordercolor="#999999"
     borderopacity="1"
     inkscape:showpageshadow="0"
     inkscape:pageopacity="0"
     inkscape:pagecheckerboard="0"
     inkscape:deskcolor="#d1d1d1"
     inkscape:document-units="px"
     showgrid="false"
     showguides="true"
     inkscape:zoom="2.1649824"
     inkscape:cx="205.31345"
     inkscape:cy="256.35312"
     inkscape:window-width="2560"
     inkscape:window-height="1377"
     inkscape:window-x="-8"
     inkscape:window-y="-8"
     inkscape:window-maximized="1"
     inkscape:current-layer="svg5" />
  <defs
     id="defs2" />
  <g
     id="g5"
     transform="matrix(17.610386,0,0,19.046202,-5.3887781,-12.951418)">
    <path
       id="staff-career-pioneer"
       d="m 29.313,14.19 c -0.131,0.006 -0.262,0.003 -0.393,0.007 -0.423,0.011 -0.847,0.022 -1.27,0.037 -0.283,0.009 -0.567,0.022 -0.85,0.038 -0.345,0.019 -0.69,0.048 -1.034,0.063 -0.248,0.011 -0.497,0.002 -0.745,0.009 -0.207,0.007 -0.415,0.014 -0.619,0.042 -0.068,0.01 -0.143,0.074 -0.186,0.134 -0.11,0.155 -0.206,0.322 -0.306,0.484 -0.034,0.056 -0.064,0.115 -0.096,0.173 -0.088,0.165 -0.26,0.214 -0.41,0.294 -0.167,0.089 -0.333,0.179 -0.502,0.266 -0.201,0.104 -0.405,0.201 -0.604,0.31 -0.24,0.131 -0.475,0.272 -0.714,0.406 -0.095,0.053 -0.193,0.1 -0.291,0.149 -0.228,0.112 -0.459,0.217 -0.683,0.336 -0.203,0.108 -0.396,0.235 -0.597,0.346 -0.147,0.081 -0.301,0.149 -0.451,0.227 -0.158,0.082 -0.314,0.168 -0.47,0.254 -0.149,0.083 -0.292,0.173 -0.443,0.251 -0.154,0.081 -0.317,0.144 -0.47,0.227 -0.203,0.109 -0.396,0.238 -0.601,0.344 -0.239,0.124 -0.489,0.227 -0.729,0.349 -0.141,0.072 -0.268,0.168 -0.407,0.243 -0.126,0.067 -0.264,0.113 -0.39,0.181 -0.112,0.061 -0.229,0.127 -0.315,0.217 -0.042,0.045 -0.021,0.152 -0.023,0.231 -0.011,0.376 -0.011,0.753 -0.034,1.128 -0.02,0.327 -0.08,0.651 -0.097,0.978 -0.019,0.366 0.014,0.736 -0.018,1.1 -0.04,0.448 0.017,0.9 -0.087,1.347 -0.053,0.229 -0.008,0.479 -0.017,0.719 -0.011,0.305 -0.037,0.609 -0.045,0.914 -0.01,0.358 -0.005,0.716 -0.011,1.074 -0.002,0.162 -0.014,0.324 -0.022,0.494 -0.068,0 -0.13,0 -0.215,0 0,-0.269 0.003,-0.532 -10e-4,-0.795 -0.006,-0.405 -0.02,-0.809 -0.027,-1.213 -0.005,-0.283 -0.005,-0.566 -0.008,-0.849 0,-0.009 10e-4,-0.018 0,-0.027 -0.035,-0.259 -0.086,-0.516 -0.1,-0.776 -0.025,-0.448 -0.026,-0.898 -0.041,-1.346 -0.005,-0.157 -0.028,-0.313 -0.033,-0.47 -0.007,-0.19 0,-0.381 -0.006,-0.572 -0.003,-0.091 -0.024,-0.182 -0.034,-0.273 -0.013,-0.107 -0.031,-0.213 -0.034,-0.32 -0.005,-0.231 -0.004,-0.463 -0.001,-0.695 0.002,-0.15 -0.062,-0.202 -0.197,-0.135 -0.126,0.063 -0.24,0.148 -0.363,0.218 -0.119,0.067 -0.242,0.128 -0.364,0.19 -0.177,0.091 -0.354,0.182 -0.532,0.271 -0.211,0.105 -0.425,0.203 -0.633,0.315 -0.131,0.07 -0.248,0.167 -0.38,0.237 -0.141,0.076 -0.294,0.129 -0.436,0.204 -0.232,0.124 -0.458,0.261 -0.689,0.386 -0.232,0.125 -0.469,0.24 -0.701,0.362 -0.094,0.05 -0.183,0.108 -0.275,0.162 -0.019,-0.008 -0.038,-0.017 -0.058,-0.026 0.016,-0.066 0.019,-0.139 0.049,-0.198 0.065,-0.127 0.144,-0.248 0.219,-0.371 0.041,-0.067 0.087,-0.13 0.126,-0.198 0.068,-0.119 0.129,-0.242 0.197,-0.362 0.121,-0.211 0.247,-0.42 0.366,-0.633 0.119,-0.211 0.228,-0.428 0.348,-0.639 0.074,-0.131 0.164,-0.254 0.242,-0.384 0.042,-0.069 0.067,-0.15 0.112,-0.217 0.115,-0.174 0.294,-0.257 0.479,-0.342 0.234,-0.107 0.449,-0.256 0.677,-0.378 0.204,-0.108 0.417,-0.198 0.621,-0.306 0.141,-0.074 0.273,-0.165 0.411,-0.245 0.106,-0.061 0.213,-0.119 0.321,-0.174 0.267,-0.137 0.536,-0.27 0.803,-0.406 0.34,-0.173 0.682,-0.344 1.019,-0.522 0.214,-0.114 0.419,-0.245 0.632,-0.36 0.21,-0.114 0.428,-0.215 0.64,-0.326 0.198,-0.104 0.393,-0.214 0.59,-0.319 0.081,-0.043 0.17,-0.071 0.249,-0.117 0.125,-0.071 0.244,-0.154 0.369,-0.226 0.113,-0.065 0.232,-0.122 0.347,-0.185 0.169,-0.093 0.364,-0.135 0.514,-0.273 0.072,-0.066 0.189,-0.08 0.279,-0.129 0.262,-0.142 0.52,-0.292 0.782,-0.433 0.102,-0.056 0.206,-0.113 0.317,-0.143 0.141,-0.039 0.197,-0.13 0.199,-0.26 0.001,-0.134 -0.006,-0.269 -0.023,-0.401 -0.023,-0.183 0.016,-0.241 0.193,-0.227 0.189,0.015 0.376,0.052 0.565,0.07 0.165,0.017 0.332,0.031 0.498,0.026 0.072,-10e-4 0.146,-0.046 0.213,-0.081 0.243,-0.13 0.482,-0.267 0.726,-0.396 0.134,-0.071 0.277,-0.126 0.413,-0.196 0.122,-0.062 0.237,-0.138 0.358,-0.202 0.262,-0.138 0.529,-0.267 0.788,-0.409 0.185,-0.101 0.362,-0.216 0.548,-0.328 0.09,0.09 0.051,0.163 -0.007,0.253 -0.092,0.141 -0.165,0.294 -0.246,0.442 -0.01,0.02 -0.009,0.05 -0.024,0.062 -0.137,0.121 -0.188,0.291 -0.266,0.446 -0.057,0.112 -0.149,0.207 -0.214,0.315 -0.029,0.049 -0.048,0.116 -0.04,0.17 0.004,0.026 0.085,0.064 0.123,0.057 0.164,-0.029 0.319,-0.009 0.474,0.041 0.026,0.008 0.056,10e-4 0.084,0.002 0.576,0.01 1.153,0.014 1.728,0.033 0.49,0.015 0.98,0.049 1.469,0.071 0.168,0.008 0.336,-0.004 0.503,0.01 0.109,0.008 0.216,0.044 0.322,0.072 0.015,0.004 0.036,0.045 0.031,0.05 -0.017,0.02 -0.043,0.045 -0.066,0.046 z M 28.94,6.203 C 28.849,6.355 28.754,6.506 28.667,6.661 28.559,6.855 28.46,7.055 28.35,7.249 28.224,7.472 28.088,7.69 27.959,7.912 c -0.046,0.078 -0.088,0.159 -0.13,0.24 -0.068,0.129 -0.121,0.27 -0.206,0.387 -0.067,0.092 -0.168,0.164 -0.263,0.232 -0.076,0.054 -0.167,0.088 -0.251,0.132 -0.268,0.14 -0.538,0.276 -0.803,0.422 -0.215,0.118 -0.422,0.25 -0.635,0.371 -0.119,0.068 -0.245,0.124 -0.366,0.187 -0.231,0.119 -0.461,0.241 -0.693,0.359 -0.25,0.128 -0.503,0.25 -0.751,0.38 -0.123,0.065 -0.239,0.145 -0.36,0.214 -0.107,0.06 -0.216,0.115 -0.325,0.171 -0.314,0.161 -0.629,0.318 -0.941,0.483 -0.313,0.166 -0.62,0.343 -0.933,0.508 -0.325,0.171 -0.659,0.328 -0.983,0.501 -0.289,0.155 -0.57,0.328 -0.858,0.486 -0.139,0.077 -0.288,0.134 -0.429,0.209 -0.139,0.073 -0.271,0.159 -0.409,0.235 -0.108,0.06 -0.22,0.11 -0.329,0.168 -0.247,0.133 -0.49,0.273 -0.74,0.4 -0.229,0.116 -0.467,0.213 -0.695,0.331 -0.144,0.074 -0.274,0.173 -0.413,0.256 -0.088,0.053 -0.178,0.103 -0.27,0.148 -0.222,0.11 -0.447,0.212 -0.667,0.325 -0.213,0.108 -0.422,0.225 -0.633,0.338 -0.14,0.075 -0.28,0.15 -0.419,0.227 -0.149,0.082 -0.293,0.172 -0.444,0.249 -0.132,0.068 -0.272,0.121 -0.407,0.185 -0.098,0.047 -0.194,0.099 -0.289,0.154 -0.212,0.123 -0.419,0.253 -0.633,0.371 -0.128,0.071 -0.268,0.119 -0.397,0.188 -0.236,0.126 -0.467,0.262 -0.704,0.389 -0.136,0.072 -0.28,0.132 -0.419,0.2 -0.116,0.058 -0.23,0.117 -0.344,0.179 -0.135,0.074 -0.268,0.153 -0.403,0.228 -0.247,0.136 -0.493,0.273 -0.743,0.406 -0.124,0.066 -0.255,0.119 -0.38,0.184 -0.135,0.069 -0.266,0.147 -0.401,0.217 -0.324,0.17 -0.65,0.338 -0.975,0.507 -0.077,0.04 -0.152,0.084 -0.228,0.127 -0.15,0.086 -0.299,0.175 -0.451,0.257 -0.114,0.062 -0.233,0.112 -0.348,0.173 -0.166,0.088 -0.329,0.18 -0.495,0.27 C 6.309,19.953 6.221,20 6.133,20.045 5.922,20.152 5.708,20.254 5.499,20.365 5.269,20.488 5.044,20.621 4.814,20.745 4.583,20.87 4.348,20.985 4.116,21.109 3.9,21.225 3.688,21.352 3.47,21.465 3.244,21.582 3.011,21.684 2.786,21.801 2.633,21.881 2.489,21.977 2.339,22.061 2.24,22.117 2.137,22.164 2.035,22.214 1.814,22.323 1.589,22.425 1.373,22.542 1.164,22.655 0.964,22.787 0.758,22.905 0.633,22.977 0.504,23.039 0.365,23.111 0.354,23.099 0.33,23.073 0.306,23.047 c 0,-0.047 0,-0.093 0,-0.14 0.038,-0.022 0.091,-0.034 0.111,-0.067 0.077,-0.126 0.139,-0.261 0.215,-0.387 0.076,-0.127 0.166,-0.245 0.242,-0.372 0.055,-0.09 0.094,-0.19 0.144,-0.283 0.116,-0.213 0.229,-0.427 0.352,-0.637 0.163,-0.28 0.335,-0.555 0.502,-0.834 0.053,-0.089 0.091,-0.188 0.153,-0.27 0.057,-0.075 0.128,-0.147 0.208,-0.196 0.145,-0.088 0.301,-0.155 0.45,-0.236 0.21,-0.114 0.415,-0.236 0.626,-0.346 0.227,-0.119 0.461,-0.224 0.688,-0.343 0.209,-0.11 0.412,-0.233 0.621,-0.343 0.146,-0.077 0.303,-0.137 0.448,-0.217 0.139,-0.076 0.266,-0.172 0.403,-0.251 0.124,-0.072 0.254,-0.133 0.382,-0.198 0.144,-0.073 0.288,-0.143 0.431,-0.218 0.1,-0.052 0.196,-0.111 0.297,-0.163 0.212,-0.108 0.429,-0.21 0.639,-0.323 0.24,-0.128 0.472,-0.27 0.711,-0.397 0.216,-0.115 0.439,-0.219 0.658,-0.329 0.099,-0.05 0.198,-0.1 0.295,-0.155 0.225,-0.126 0.444,-0.261 0.672,-0.381 0.136,-0.071 0.285,-0.115 0.424,-0.18 0.086,-0.039 0.165,-0.094 0.247,-0.143 0.126,-0.076 0.247,-0.161 0.377,-0.23 0.139,-0.074 0.286,-0.132 0.427,-0.202 0.116,-0.057 0.229,-0.121 0.343,-0.182 0.245,-0.13 0.491,-0.258 0.736,-0.39 0.324,-0.174 0.648,-0.351 0.972,-0.526 0.214,-0.114 0.431,-0.223 0.644,-0.338 0.229,-0.125 0.455,-0.258 0.685,-0.383 0.123,-0.066 0.252,-0.121 0.378,-0.184 0.062,-0.031 0.12,-0.068 0.182,-0.1 0.139,-0.07 0.28,-0.137 0.419,-0.209 0.122,-0.063 0.241,-0.135 0.364,-0.198 0.145,-0.073 0.295,-0.137 0.438,-0.213 0.117,-0.062 0.226,-0.14 0.342,-0.204 0.15,-0.081 0.305,-0.154 0.457,-0.232 0.096,-0.048 0.193,-0.097 0.286,-0.15 0.216,-0.124 0.427,-0.258 0.645,-0.376 0.217,-0.118 0.444,-0.218 0.663,-0.333 0.144,-0.075 0.282,-0.164 0.424,-0.244 0.093,-0.053 0.188,-0.103 0.283,-0.151 0.226,-0.113 0.454,-0.219 0.677,-0.337 0.216,-0.114 0.424,-0.24 0.638,-0.357 0.135,-0.074 0.276,-0.137 0.412,-0.21 0.137,-0.073 0.27,-0.155 0.408,-0.228 0.11,-0.059 0.227,-0.108 0.338,-0.167 0.174,-0.092 0.344,-0.192 0.518,-0.283 0.229,-0.12 0.461,-0.235 0.692,-0.351 0.184,-0.092 0.373,-0.178 0.553,-0.277 0.137,-0.075 0.26,-0.172 0.396,-0.248 0.122,-0.069 0.256,-0.118 0.381,-0.182 0.22,-0.113 0.438,-0.231 0.658,-0.346 0.133,-0.069 0.269,-0.133 0.402,-0.203 0.124,-0.065 0.246,-0.135 0.37,-0.201 0.144,-0.077 0.291,-0.152 0.435,-0.23 C 26.301,7.1 26.431,7.024 26.562,6.95 26.68,6.885 26.798,6.819 26.916,6.756 27.08,6.668 27.245,6.582 27.409,6.495 c 0.109,-0.057 0.219,-0.112 0.327,-0.17 0.155,-0.083 0.308,-0.171 0.463,-0.253 0.121,-0.064 0.247,-0.121 0.368,-0.186 0.181,-0.099 0.36,-0.202 0.541,-0.303 0.016,-0.009 0.035,-0.012 0.06,-0.02 0.083,0.093 0.09,0.169 -10e-4,0.274 -0.093,0.107 -0.153,0.242 -0.227,0.366 z M 18.87,7.16 C 18.809,7.273 18.753,7.389 18.687,7.499 18.514,7.789 18.33,8.074 18.161,8.367 18.043,8.57 17.952,8.79 17.83,8.99 c -0.118,0.193 -0.206,0.401 -0.471,0.485 -0.228,0.073 -0.42,0.253 -0.635,0.371 -0.14,0.077 -0.298,0.122 -0.442,0.193 -0.129,0.063 -0.25,0.144 -0.377,0.213 -0.227,0.124 -0.454,0.245 -0.681,0.368 -0.22,0.119 -0.439,0.24 -0.659,0.359 -0.115,0.062 -0.232,0.12 -0.347,0.181 -0.237,0.126 -0.473,0.254 -0.712,0.378 -0.229,0.119 -0.462,0.231 -0.691,0.352 -0.217,0.114 -0.431,0.234 -0.645,0.352 -0.127,0.07 -0.253,0.142 -0.38,0.211 -0.164,0.09 -0.328,0.181 -0.494,0.266 -0.131,0.066 -0.266,0.12 -0.398,0.184 -0.111,0.054 -0.22,0.112 -0.328,0.171 -0.139,0.078 -0.273,0.163 -0.414,0.237 -0.205,0.107 -0.417,0.203 -0.621,0.313 -0.102,0.054 -0.136,0.151 -0.132,0.27 0.007,0.196 10e-4,0.393 -0.008,0.589 -0.002,0.025 -0.054,0.07 -0.08,0.068 C 9.162,14.541 9.01,14.51 8.856,14.504 8.551,14.491 8.245,14.477 7.941,14.49 7.837,14.495 7.736,14.577 7.635,14.626 7.542,14.672 7.447,14.714 7.358,14.767 7.22,14.851 7.09,14.949 6.95,15.029 6.837,15.094 6.712,15.138 6.594,15.196 6.372,15.307 6.152,15.42 5.932,15.533 5.792,15.605 5.65,15.675 5.513,15.753 5.371,15.834 5.237,15.932 5.092,16.01 4.96,16.081 4.815,16.129 4.683,16.2 4.544,16.273 4.415,16.364 4.278,16.441 4.223,16.471 4.131,16.519 4.105,16.498 4.025,16.433 4.102,16.377 4.143,16.313 4.229,16.181 4.297,16.038 4.375,15.901 4.425,15.814 4.477,15.728 4.532,15.644 4.614,15.521 4.705,15.404 4.783,15.279 4.827,15.208 4.848,15.122 4.889,15.049 4.985,14.88 5.091,14.718 5.184,14.548 5.215,14.49 5.216,14.415 5.241,14.306 4.848,14.306 4.488,14.317 4.128,14.303 3.81,14.291 3.493,14.25 3.175,14.227 3.058,14.219 2.939,14.226 2.822,14.224 2.28,14.211 1.739,14.197 1.172,14.182 c 0.02,-0.038 0.027,-0.076 0.049,-0.088 0.168,-0.09 0.354,-0.075 0.535,-0.083 0.463,-0.022 0.927,-0.04 1.39,-0.057 0.435,-0.015 0.869,-0.029 1.303,-0.04 0.307,-0.007 0.615,-0.008 0.923,-0.012 0.051,-10e-4 0.265,-0.187 0.291,-0.237 0.09,-0.173 0.192,-0.341 0.372,-0.433 0.33,-0.168 0.667,-0.322 0.996,-0.493 0.208,-0.109 0.405,-0.241 0.609,-0.357 0.114,-0.065 0.236,-0.116 0.352,-0.176 0.312,-0.164 0.621,-0.33 0.933,-0.493 0.145,-0.076 0.296,-0.143 0.441,-0.22 0.15,-0.081 0.295,-0.172 0.445,-0.255 0.111,-0.062 0.226,-0.119 0.339,-0.178 0.064,-0.034 0.129,-0.07 0.194,-0.102 0.139,-0.068 0.279,-0.133 0.417,-0.202 0.11,-0.055 0.217,-0.117 0.326,-0.175 0.158,-0.084 0.318,-0.165 0.474,-0.252 0.227,-0.127 0.45,-0.261 0.676,-0.389 0.092,-0.052 0.189,-0.096 0.284,-0.142 0.141,-0.068 0.284,-0.13 0.423,-0.201 0.134,-0.068 0.264,-0.142 0.395,-0.215 0.095,-0.053 0.188,-0.111 0.284,-0.161 0.219,-0.114 0.441,-0.22 0.658,-0.337 0.17,-0.092 0.338,-0.188 0.497,-0.297 0.046,-0.032 0.076,-0.115 0.079,-0.176 0.019,-0.415 0.026,-0.83 0.044,-1.245 0.005,-0.128 0.044,-0.255 0.051,-0.383 0.019,-0.349 0.031,-0.698 0.042,-1.047 0.015,-0.457 0.02,-0.915 0.04,-1.372 0.007,-0.17 0.052,-0.337 0.065,-0.506 0.016,-0.198 0.014,-0.397 0.021,-0.595 0.012,-0.374 0.027,-0.749 0.036,-1.124 0.01,-0.387 0.015,-0.775 0.019,-1.162 0.002,-0.099 -0.004,-0.198 -0.007,-0.297 0.075,0 0.151,0 0.226,0 -0.002,0.198 -0.006,0.396 -0.003,0.593 0.009,0.544 0.022,1.088 0.032,1.631 0.004,0.205 -0.022,0.416 0.012,0.615 0.089,0.511 0.105,1.025 0.117,1.541 0.008,0.301 0.009,0.602 0.02,0.903 0.005,0.151 0.027,0.301 0.037,0.451 0.027,0.386 0.053,0.772 0.077,1.157 0.006,0.083 0.003,0.167 0.011,0.25 0.006,0.074 0.022,0.148 0.033,0.222 0.088,-0.016 0.183,-0.016 0.261,-0.054 0.158,-0.076 0.305,-0.174 0.459,-0.261 0.13,-0.073 0.262,-0.142 0.393,-0.213 0.205,-0.11 0.412,-0.217 0.616,-0.328 0.238,-0.13 0.474,-0.264 0.712,-0.393 0.105,-0.057 0.214,-0.105 0.32,-0.161 0.182,-0.097 0.36,-0.203 0.547,-0.293 0.083,-0.04 0.182,-0.048 0.273,-0.071 0.013,0.018 0.026,0.037 0.038,0.055 -0.098,0.162 -0.2,0.323 -0.295,0.486 -0.066,0.114 -0.123,0.233 -0.184,0.35 z" />
  </g>
</svg>
