<?xml version="1.0" encoding="UTF-8" standalone="no"?>
<!-- Created with Inkscape (http://www.inkscape.org/) -->

<svg
   width="512"
   height="512"
   viewBox="0 0 512 512"
   version="1.1"
   id="svg5"
   inkscape:version="1.2 (dc2aedaf03, 2022-05-15)"
   sodipodi:docname="sniper.svg"
   xmlns:inkscape="http://www.inkscape.org/namespaces/inkscape"
   xmlns:sodipodi="http://sodipodi.sourceforge.net/DTD/sodipodi-0.dtd"
   xmlns="http://www.w3.org/2000/svg"
   xmlns:svg="http://www.w3.org/2000/svg">
  <sodipodi:namedview
     id="namedview7"
     pagecolor="#ffffff"
     bordercolor="#999999"
     borderopacity="1"
     inkscape:showpageshadow="0"
     inkscape:pageopacity="0"
     inkscape:pagecheckerboard="0"
     inkscape:deskcolor="#d1d1d1"
     inkscape:document-units="px"
     showgrid="false"
     showguides="true"
     inkscape:zoom="2.1649824"
     inkscape:cx="205.31345"
     inkscape:cy="256.35312"
     inkscape:window-width="2560"
     inkscape:window-height="1377"
     inkscape:window-x="-8"
     inkscape:window-y="-8"
     inkscape:window-maximized="1"
     inkscape:current-layer="svg5" />
  <defs
     id="defs2" />
  <g
     id="g5"
     transform="matrix(18.212863,0,0,17.988265,-4.4075128,-17.574535)">
    <path
       id="staff-career-sniper"
       d="m 28.348,1.103 c 0.001,2.998 0.001,5.996 0.001,8.994 0,0.04 -0.003,0.08 -0.032,0.122 -0.04,-0.24 -0.08,-0.48 -0.119,-0.721 C 28.056,8.63 27.913,7.763 27.772,6.895 27.634,6.045 27.498,5.195 27.359,4.346 27.254,3.699 27.144,3.054 27.041,2.407 27.028,2.33 27.002,2.3 26.921,2.287 26.04,2.144 25.16,1.998 24.28,1.851 23.496,1.721 22.713,1.59 21.929,1.46 21.04,1.313 20.15,1.168 19.26,1.021 19.21,1.013 19.163,0.992 19.114,0.977 c 3.08,0 6.16,0 9.24,0 -0.002,0.042 -0.006,0.084 -0.006,0.126 z M 8.297,8.072 c 0.114,2.642 0.228,5.284 0.342,7.936 -0.242,0 -0.464,0 -0.71,0 0.114,-2.65 0.228,-5.294 0.342,-7.938 0.009,0 0.017,10e-4 0.026,0.002 z M 21.971,4.296 c 0.357,0.345 0.708,0.696 1.056,1.05 0.07,0.07 0.127,0.083 0.22,0.046 0.461,-0.18 0.925,-0.353 1.389,-0.529 0.039,-0.014 0.078,-0.026 0.144,-0.049 -0.022,0.07 -0.035,0.121 -0.053,0.17 -0.165,0.448 -0.327,0.897 -0.498,1.342 -0.045,0.117 -0.031,0.192 0.061,0.281 0.35,0.338 0.694,0.683 1.034,1.032 0.062,0.063 0.113,0.151 0.134,0.236 0.525,2.1 1.045,4.202 1.566,6.304 0.238,0.963 0.476,1.925 0.71,2.889 0.012,0.048 0.007,0.114 -0.018,0.155 -0.891,1.43 -1.785,2.859 -2.68,4.288 -0.012,0.019 -0.028,0.035 -0.059,0.072 -0.205,-0.209 -0.404,-0.412 -0.603,-0.614 -0.187,-0.187 -0.187,-0.186 -0.046,-0.414 0.158,-0.253 0.315,-0.506 0.488,-0.785 -0.083,0 -0.137,0 -0.191,0 -3.978,0.017 -7.956,0.041 -11.934,0.042 -0.436,0 -0.742,0.116 -1.043,0.437 -0.747,0.795 -1.534,1.552 -2.305,2.324 -0.029,0.029 -0.055,0.06 -0.074,0.123 0.857,-0.068 1.715,-0.135 2.594,-0.205 -0.01,0.133 -0.017,0.252 -0.026,0.37 -0.041,0.523 -0.085,1.046 -0.121,1.569 -0.009,0.126 -0.054,0.176 -0.182,0.186 -0.653,0.047 -1.306,0.101 -1.959,0.153 -0.713,0.057 -1.427,0.115 -2.14,0.172 C 7.076,24.97 6.717,25.003 6.358,25.023 6.223,25.03 6.123,25.069 6.026,25.167 4.665,26.535 3.301,27.899 1.939,29.265 1.9,29.304 1.876,29.358 1.822,29.44 1.269,28.877 0.756,28.353 0.242,27.829 c 0,-0.009 0,-0.018 0,-0.028 0.04,-0.03 0.084,-0.055 0.119,-0.09 1.38,-1.381 2.76,-2.763 4.137,-4.148 0.053,-0.054 0.097,-0.141 0.103,-0.217 0.07,-0.826 0.13,-1.653 0.196,-2.479 C 4.863,20.036 4.933,19.205 5.001,18.375 5.01,18.267 5.018,18.16 5.021,18.052 5.023,17.96 5.064,17.92 5.157,17.913 5.656,17.876 6.155,17.836 6.654,17.797 6.807,17.785 6.96,17.773 7.14,17.759 7.071,18.632 7.004,19.492 6.933,20.386 6.989,20.339 7.02,20.315 7.048,20.287 7.942,19.393 8.834,18.498 9.73,17.605 c 0.073,-0.072 0.101,-0.146 0.103,-0.246 0.06,-2.689 0.123,-5.377 0.185,-8.066 0.035,-1.499 0.07,-2.998 0.104,-4.497 10e-4,-0.045 0,-0.09 0,-0.167 C 9.685,4.902 9.271,5.161 8.866,5.414 8.598,5.144 8.338,4.883 8.071,4.614 8.098,4.594 8.13,4.568 8.164,4.547 9.563,3.67 10.963,2.792 12.365,1.919 c 0.054,-0.034 0.141,-0.048 0.204,-0.032 1.402,0.343 2.803,0.691 4.204,1.039 1.65,0.409 3.301,0.817 4.95,1.231 0.089,0.022 0.182,0.075 0.248,0.139 z m -1.177,6.411 c -0.494,0.486 -0.981,0.979 -1.471,1.469 -0.033,0.033 -0.067,0.063 -0.132,0.123 -0.083,-0.109 -0.163,-0.213 -0.245,-0.321 -0.062,0.058 -0.097,0.089 -0.129,0.121 -0.642,0.643 -1.284,1.285 -1.926,1.928 -1.496,1.498 -2.992,2.996 -4.49,4.491 -0.052,0.052 -0.127,0.106 -0.196,0.114 -0.307,0.036 -0.615,0.056 -0.923,0.079 -0.128,0.01 -0.257,0.013 -0.393,0.02 0,-0.052 -0.003,-0.089 0,-0.126 0.031,-0.368 0.069,-0.737 0.092,-1.106 0.008,-0.122 0.054,-0.206 0.138,-0.29 2.133,-2.131 4.264,-4.265 6.395,-6.399 0.036,-0.036 0.069,-0.073 0.138,-0.146 -0.111,-0.08 -0.213,-0.154 -0.351,-0.253 0.08,-0.058 0.126,-0.083 0.163,-0.119 C 17.961,9.796 18.458,9.299 18.952,8.8 19.006,8.746 19.054,8.677 19.083,8.605 19.429,7.726 19.774,6.846 20.112,5.964 20.139,5.893 20.139,5.799 20.119,5.725 20.067,5.541 19.983,5.365 19.939,5.18 19.899,5.013 19.806,4.953 19.648,4.915 18.395,4.611 17.144,4.297 15.893,3.987 14.8,3.715 13.708,3.442 12.614,3.176 c -0.071,-0.017 -0.169,10e-4 -0.232,0.04 -0.586,0.36 -1.167,0.728 -1.751,1.091 -0.076,0.047 -0.107,0.099 -0.109,0.191 -0.047,2.529 -0.097,5.059 -0.148,7.588 -0.046,2.3 -0.094,4.6 -0.147,6.9 -10e-4,0.069 -0.045,0.152 -0.095,0.202 -1.086,1.093 -2.174,2.184 -3.267,3.269 -0.132,0.131 -0.127,0.275 -0.127,0.438 0.181,0.001 0.321,-0.022 0.454,-0.156 1.069,-1.083 2.148,-2.156 3.221,-3.235 0.075,-0.075 0.15,-0.109 0.257,-0.109 0.651,0.004 1.301,0.002 1.952,0 2.401,-0.006 4.801,-0.013 7.202,-0.019 1.69,-0.004 3.379,-0.007 5.068,-0.005 0.136,0 0.208,-0.044 0.278,-0.157 0.399,-0.65 0.804,-1.297 1.214,-1.941 0.07,-0.109 0.079,-0.206 0.048,-0.327 C 26.034,15.354 25.64,13.761 25.245,12.168 25.059,11.414 24.871,10.661 24.69,9.906 24.664,9.796 24.611,9.74 24.505,9.708 24.3,9.646 24.099,9.566 23.893,9.506 23.824,9.486 23.734,9.484 23.668,9.509 22.8,9.844 21.934,10.182 21.07,10.526 c -0.1,0.04 -0.199,0.105 -0.276,0.181 z m 0.662,10.678 c -2.604,0.112 -5.209,0.225 -7.823,0.338 0,-0.243 0,-0.465 0,-0.711 2.609,0.113 5.215,0.225 7.822,0.337 0,0.012 0.001,0.024 0.001,0.036 z" />
  </g>
</svg>
