<?xml version="1.0" encoding="UTF-8" standalone="no"?>
<!-- Created with Inkscape (http://www.inkscape.org/) -->

<svg
   width="512"
   height="512"
   viewBox="0 0 512 512"
   version="1.1"
   id="svg5"
   inkscape:version="1.2 (dc2aedaf03, 2022-05-15)"
   sodipodi:docname="special.svg"
   xmlns:inkscape="http://www.inkscape.org/namespaces/inkscape"
   xmlns:sodipodi="http://sodipodi.sourceforge.net/DTD/sodipodi-0.dtd"
   xmlns="http://www.w3.org/2000/svg"
   xmlns:svg="http://www.w3.org/2000/svg">
  <sodipodi:namedview
     id="namedview7"
     pagecolor="#ffffff"
     bordercolor="#999999"
     borderopacity="1"
     inkscape:showpageshadow="0"
     inkscape:pageopacity="0"
     inkscape:pagecheckerboard="0"
     inkscape:deskcolor="#d1d1d1"
     inkscape:document-units="px"
     showgrid="false"
     showguides="true"
     inkscape:zoom="2.1649824"
     inkscape:cx="205.77534"
     inkscape:cy="256.35312"
     inkscape:window-width="2560"
     inkscape:window-height="1377"
     inkscape:window-x="-8"
     inkscape:window-y="-8"
     inkscape:window-maximized="1"
     inkscape:current-layer="svg5" />
  <defs
     id="defs2" />
  <g
     id="g5"
     transform="matrix(17.76914,0,0,18.100187,-15.725688,-1.1765122)">
    <path
       id="staff-career-special"
       d="m 29.116,28.057 c -0.688,-0.35 -1.376,-0.701 -2.067,-1.047 -0.067,-0.034 -0.15,-0.054 -0.226,-0.054 -7.685,-0.003 -15.371,-0.003 -23.056,0 -0.08,0 -0.168,0.022 -0.239,0.058 C 2.687,27.437 1.849,27.864 1.01,28.29 0.974,28.308 0.936,28.322 0.899,28.338 0.895,28.329 0.89,28.32 0.885,28.311 1.213,28.04 1.54,27.768 1.868,27.496 2.32,27.123 2.773,26.752 3.22,26.374 3.293,26.314 3.351,26.228 3.394,26.142 4.493,23.978 5.59,21.813 6.682,19.646 6.739,19.534 6.8,19.493 6.927,19.494 c 0.731,0.007 1.461,0.004 2.192,0.004 0.049,0 0.099,0 0.18,0 -0.838,1.654 -1.662,3.282 -2.496,4.93 5.646,0 11.273,0 16.922,0 -0.331,-0.657 -0.657,-1.302 -0.995,-1.97 0.069,-0.004 0.117,-0.009 0.165,-0.009 0.74,-0.001 1.48,0.002 2.22,-0.003 0.108,-0.001 0.165,0.03 0.215,0.13 0.583,1.16 1.169,2.318 1.759,3.473 0.053,0.105 0.132,0.206 0.222,0.281 0.758,0.635 1.522,1.263 2.283,1.893 0.042,0.034 0.082,0.069 0.105,0.129 -0.194,-0.098 -0.388,-0.197 -0.583,-0.295 z M 16.208,19.791 c 0.38,-0.753 0.763,-1.505 1.14,-2.259 0.045,-0.091 0.101,-0.115 0.196,-0.115 0.815,0.004 1.63,0.002 2.445,0.002 0.051,0 0.102,0 0.188,0 -1.639,-3.235 -3.266,-6.449 -4.912,-9.7 -1.146,2.264 -2.276,4.495 -3.42,6.754 1.331,0 2.634,0 3.966,0 -0.145,0.289 -0.276,0.551 -0.409,0.813 -0.267,0.527 -0.536,1.052 -0.799,1.58 -0.044,0.088 -0.094,0.12 -0.193,0.12 -2.075,-0.003 -4.149,-0.002 -6.224,-0.003 -0.041,0 -0.081,-0.005 -0.144,-0.009 0.116,-0.231 0.224,-0.447 0.333,-0.663 1.907,-3.766 3.814,-7.533 5.721,-11.299 0.218,-0.431 0.422,-0.87 0.66,-1.289 0.161,-0.284 0.214,-0.581 0.241,-0.896 0.075,-0.883 0.16,-1.765 0.241,-2.647 0.003,-0.039 0.013,-0.078 0.044,-0.115 0.028,0.305 0.056,0.609 0.085,0.914 0.07,0.766 0.141,1.531 0.214,2.296 0.005,0.05 0.023,0.101 0.046,0.145 2.37,4.683 4.741,9.364 7.112,14.046 0.392,0.773 0.783,1.547 1.174,2.321 0.021,0.04 0.039,0.081 0.065,0.136 -2.614,0 -5.207,0 -7.823,0 0.02,-0.052 0.033,-0.094 0.053,-0.132 z" />
  </g>
</svg>
