<?xml version="1.0" encoding="UTF-8" standalone="no"?>
<!-- Created with Inkscape (http://www.inkscape.org/) -->

<svg
   width="512"
   height="512"
   viewBox="0 0 512 512"
   version="1.1"
   id="svg5"
   inkscape:version="1.2 (dc2aedaf03, 2022-05-15)"
   sodipodi:docname="support.svg"
   xmlns:inkscape="http://www.inkscape.org/namespaces/inkscape"
   xmlns:sodipodi="http://sodipodi.sourceforge.net/DTD/sodipodi-0.dtd"
   xmlns="http://www.w3.org/2000/svg"
   xmlns:svg="http://www.w3.org/2000/svg">
  <sodipodi:namedview
     id="namedview7"
     pagecolor="#ffffff"
     bordercolor="#999999"
     borderopacity="1"
     inkscape:showpageshadow="0"
     inkscape:pageopacity="0"
     inkscape:pagecheckerboard="0"
     inkscape:deskcolor="#d1d1d1"
     inkscape:document-units="px"
     showgrid="false"
     showguides="false"
     inkscape:zoom="2.1649824"
     inkscape:cx="205.31345"
     inkscape:cy="256.35312"
     inkscape:window-width="2560"
     inkscape:window-height="1377"
     inkscape:window-x="-8"
     inkscape:window-y="-8"
     inkscape:window-maximized="1"
     inkscape:current-layer="svg5" />
  <defs
     id="defs2" />
  <g
     id="g5"
     transform="matrix(19.512297,0,0,19.506248,-19.593014,-0.60469369)">
    <path
       id="staff-career-support"
       d="m 15.17,0.031 c 4.016,0 8.031,0 12.046,0 0.008,0.06 0.024,0.12 0.024,0.18 0.001,8.633 0.001,17.265 0.004,25.897 0,0.136 -0.037,0.171 -0.171,0.171 -3.847,-0.004 -7.693,-0.003 -11.539,-0.003 -0.05,0 -0.1,0 -0.158,0 0,-0.812 0,-1.606 0,-2.399 0.023,-0.006 0.036,-0.013 0.049,-0.013 1.074,-0.001 2.148,-0.002 3.222,-0.001 0.03,0 0.06,0.016 0.09,0.026 0.056,0.02 0.112,0.059 0.168,0.059 1.951,0.004 3.902,0.002 5.854,0.006 0.131,0 0.164,-0.04 0.164,-0.168 -0.002,-7.085 -0.002,-14.17 0,-21.255 0,-0.126 -0.03,-0.166 -0.163,-0.166 -2.224,0.005 -4.447,0.003 -6.67,0.003 -0.05,0 -0.1,0 -0.15,0 0,0.679 0,1.337 0,2.01 1.595,0 3.178,0 4.762,0 0,5.147 0,10.278 0,15.409 -0.018,0.014 -0.035,0.028 -0.052,0.042 C 22.625,19.784 22.609,19.73 22.574,19.695 18.469,15.59 14.363,11.485 10.256,7.382 10.177,7.303 10.142,7.225 10.142,7.112 c 0.003,-1.519 0.002,-3.038 0.002,-4.557 0,-0.059 -0.006,-0.117 -0.011,-0.187 -0.061,0 -0.107,0 -0.153,0 C 9.389,2.368 8.798,2.373 8.207,2.365 8.068,2.363 8.037,2.406 8.037,2.539 8.042,3.997 8.04,5.456 8.045,6.914 8.046,7.049 8.01,7.086 7.874,7.086 6.42,7.081 4.966,7.083 3.512,7.083 c -0.186,0 -0.186,0 -0.186,0.181 0,5.476 0,10.953 0,16.43 0,0.05 0,0.1 0,0.156 0.048,0.005 0.079,0.011 0.111,0.011 1.374,10e-4 2.748,0 4.123,0.003 0.104,0 0.124,-0.039 0.124,-0.132 C 7.681,23.151 7.68,22.569 7.685,21.988 7.686,21.879 7.647,21.855 7.546,21.856 c -0.61,0.004 -1.219,0.002 -1.829,0.002 -0.055,0 -0.11,0 -0.179,0 0,-0.066 0,-0.112 0,-0.158 0,-4.121 10e-4,-8.243 -0.002,-12.364 C 5.535,9.209 5.573,9.179 5.695,9.179 6.497,9.184 7.299,9.18 8.101,9.186 c 0.074,10e-4 0.165,0.04 0.218,0.092 4.165,4.158 8.327,8.319 12.489,12.481 0.023,0.024 0.043,0.052 0.074,0.09 -1.847,0 -3.674,0 -5.515,0 0,-0.064 0,-0.119 0,-0.174 0,-1.247 10e-4,-2.495 -0.003,-3.742 0,-0.071 -0.025,-0.163 -0.073,-0.211 -0.629,-0.638 -1.263,-1.27 -1.897,-1.903 -0.021,-0.021 -0.048,-0.035 -0.096,-0.07 0,3.521 0,7.016 0,10.527 -0.077,0 -0.136,0 -0.196,0 -3.959,0 -7.918,0 -11.876,0 -0.248,0 -0.221,0.022 -0.221,-0.217 0,-5.537 0,-11.075 0,-16.613 0,-3.071 0,-6.142 0.001,-9.213 0,-0.068 0.024,-0.135 0.036,-0.202 4.006,0 8.012,0 12.018,0 0.01,0.068 0.03,0.136 0.03,0.204 0.002,2.813 10e-4,5.626 0.005,8.439 0,0.08 0.028,0.182 0.081,0.236 0.625,0.635 1.256,1.263 1.887,1.893 0.02,0.02 0.047,0.034 0.087,0.062 0,-0.078 0,-0.134 0,-0.19 0,-3.483 0,-6.966 10e-4,-10.45 0,-0.064 0.013,-0.129 0.019,-0.194 z M 3.326,2.373 c 0,0.061 0,0.107 0,0.152 0,1.135 0.002,2.269 -0.004,3.404 0,0.137 0.047,0.16 0.169,0.16 1.13,-0.004 2.26,-0.003 3.391,-0.003 0.049,0 0.099,0 0.15,0 0,-1.249 0,-2.478 0,-3.713 -1.235,0 -2.458,0 -3.706,0 z" />
  </g>
</svg>
