<?xml version="1.0" encoding="UTF-8" standalone="no"?>
<!-- Created with Inkscape (http://www.inkscape.org/) -->

<svg
    width="512"
    height="512"
    viewBox="0 0 512 512"
    version="1.1"
    id="svg5"
    inkscape:version="1.2 (dc2aedaf03, 2022-05-15)"
    sodipodi:docname="test.svg"
    xmlns:inkscape="http://www.inkscape.org/namespaces/inkscape"
    xmlns:sodipodi="http://sodipodi.sourceforge.net/DTD/sodipodi-0.dtd"
    xmlns="http://www.w3.org/2000/svg"
    xmlns:svg="http://www.w3.org/2000/svg">
  <sodipodi:namedview
      id="namedview7"
      pagecolor="#ffffff"
      bordercolor="#999999"
      borderopacity="1"
      inkscape:showpageshadow="0"
      inkscape:pageopacity="0"
      inkscape:pagecheckerboard="0"
      inkscape:deskcolor="#d1d1d1"
      inkscape:document-units="px"
      showgrid="false"
      showguides="true"
      inkscape:zoom="2.1649824"
      inkscape:cx="204.85155"
      inkscape:cy="255.89123"
      inkscape:window-width="2560"
      inkscape:window-height="1377"
      inkscape:window-x="-8"
      inkscape:window-y="-8"
      inkscape:window-maximized="1"
      inkscape:current-layer="svg5"/>
  <defs
      id="defs2"/>
  <g
      id="g5"
      transform="matrix(18.011313,0,0,17.743779,-15.80351,-11.938315)">
    <path id="staff-career-tank" d="M22.659,3.601 C24.067,2.484 25.481,1.362 26.895,0.241 C26.903,0.248 26.912,0.256 26.921,0.263 C25.799,1.676 24.678,3.089 23.559,4.500 C23.252,4.194 22.962,3.903 22.659,3.601 ZM24.174,6.594 C24.067,8.240 23.972,9.887 23.876,11.533 C23.786,13.076 23.700,14.620 23.610,16.164 C23.527,17.571 23.443,18.979 23.354,20.387 C23.351,20.440 23.304,20.505 23.259,20.541 C21.832,21.676 20.404,22.809 18.975,23.942 C17.223,25.331 15.470,26.719 13.721,28.110 C13.638,28.177 13.589,28.174 13.507,28.111 C10.279,25.589 7.048,23.071 3.820,20.548 C3.766,20.506 3.719,20.423 3.714,20.356 C3.637,19.249 3.568,18.141 3.496,17.033 C3.427,15.981 3.356,14.929 3.288,13.877 C3.234,13.040 3.185,12.203 3.131,11.366 C3.064,10.324 2.995,9.281 2.928,8.238 C2.889,7.654 2.855,7.069 2.812,6.485 C2.804,6.388 2.859,6.367 2.925,6.338 C4.051,5.842 5.177,5.342 6.306,4.850 C6.419,4.801 6.457,4.743 6.455,4.622 C6.448,4.144 6.452,3.666 6.452,3.188 C6.452,3.138 6.452,3.088 6.452,3.021 C6.525,3.021 6.580,3.021 6.635,3.021 C7.648,3.021 8.661,3.018 9.673,3.023 C9.812,3.024 9.924,2.987 10.038,2.912 C11.175,2.159 12.316,1.411 13.453,0.658 C13.548,0.595 13.613,0.591 13.711,0.656 C14.847,1.419 15.986,2.178 17.128,2.933 C17.207,2.985 17.317,3.016 17.412,3.017 C18.359,3.023 19.307,3.023 20.254,3.018 C20.376,3.017 20.414,3.048 20.412,3.174 C20.405,3.661 20.413,4.148 20.406,4.636 C20.405,4.749 20.443,4.799 20.545,4.842 C21.692,5.326 22.837,5.817 23.985,6.300 C24.127,6.360 24.185,6.423 24.174,6.594 ZM22.576,7.290 C21.530,6.868 20.487,6.438 19.441,6.015 C19.342,5.975 19.308,5.925 19.310,5.819 C19.317,5.463 19.313,5.107 19.313,4.751 C19.313,4.487 19.313,4.487 19.042,4.487 C18.338,4.487 17.635,4.489 16.932,4.484 C16.854,4.483 16.764,4.456 16.699,4.413 C15.702,3.755 14.707,3.092 13.715,2.427 C13.620,2.363 13.556,2.355 13.455,2.422 C12.456,3.086 11.454,3.745 10.448,4.399 C10.368,4.451 10.259,4.482 10.163,4.483 C9.352,4.490 8.541,4.490 7.730,4.484 C7.594,4.483 7.543,4.509 7.548,4.659 C7.560,5.043 7.547,5.428 7.554,5.812 C7.556,5.921 7.525,5.974 7.420,6.018 C6.418,6.439 5.421,6.868 4.419,7.289 C4.284,7.345 4.222,7.407 4.248,7.565 C4.277,7.749 4.272,7.939 4.282,8.126 C4.283,8.126 4.284,8.126 4.284,8.126 C4.333,9.010 4.382,9.894 4.432,10.778 C4.486,11.728 4.542,12.677 4.596,13.627 C4.654,14.665 4.712,15.704 4.770,16.742 C4.823,17.687 4.878,18.632 4.925,19.577 C4.930,19.688 4.969,19.755 5.053,19.821 C6.027,20.577 6.998,21.336 7.970,22.095 C9.817,23.537 11.664,24.978 13.511,26.421 C13.581,26.476 13.629,26.499 13.714,26.432 C16.520,24.223 19.327,22.015 22.137,19.810 C22.216,19.749 22.248,19.683 22.251,19.587 C22.263,19.189 22.279,18.791 22.296,18.393 C22.335,17.424 22.374,16.455 22.415,15.485 C22.472,14.142 22.532,12.798 22.588,11.455 C22.642,10.158 22.690,8.861 22.752,7.565 C22.759,7.408 22.713,7.345 22.576,7.290 ZM21.141,17.873 C21.123,18.200 21.115,18.528 21.090,18.855 C21.084,18.929 21.044,19.021 20.988,19.065 C18.574,20.970 16.156,22.869 13.740,24.771 C13.670,24.826 13.623,24.851 13.538,24.784 C11.109,22.875 8.679,20.970 6.246,19.067 C6.158,18.998 6.131,18.925 6.126,18.819 C6.072,17.860 6.012,16.901 5.955,15.942 C5.902,15.035 5.851,14.128 5.798,13.220 C5.745,12.299 5.689,11.378 5.634,10.456 C5.593,9.769 5.551,9.081 5.509,8.394 C5.504,8.316 5.506,8.256 5.598,8.215 C6.177,7.962 6.753,7.701 7.330,7.442 C7.346,7.435 7.365,7.433 7.400,7.424 C7.428,7.831 7.456,8.224 7.481,8.616 C7.539,9.518 7.595,10.421 7.652,11.323 C7.717,12.370 7.782,13.418 7.848,14.465 C7.908,15.419 7.967,16.373 8.033,17.326 C8.036,17.379 8.088,17.442 8.134,17.477 C8.916,18.075 9.700,18.670 10.484,19.265 C11.380,19.946 12.275,20.626 13.171,21.306 C13.336,21.431 13.696,21.439 13.853,21.319 C15.590,20.003 17.326,18.685 19.064,17.371 C19.139,17.314 19.174,17.255 19.180,17.163 C19.219,16.466 19.262,15.769 19.304,15.072 C19.346,14.371 19.388,13.669 19.430,12.968 C19.485,12.051 19.539,11.135 19.595,10.218 C19.649,9.315 19.705,8.413 19.760,7.510 C19.763,7.475 19.773,7.440 19.783,7.388 C20.042,7.514 20.289,7.634 20.536,7.754 C20.873,7.918 21.209,8.084 21.548,8.243 C21.634,8.283 21.658,8.332 21.653,8.427 C21.561,10.121 21.475,11.815 21.383,13.508 C21.305,14.963 21.221,16.418 21.141,17.873 ZM18.464,13.122 C18.385,14.422 18.301,15.721 18.223,17.021 C18.217,17.114 18.184,17.172 18.110,17.229 C16.633,18.345 15.158,19.463 13.685,20.583 C13.604,20.645 13.555,20.637 13.480,20.578 C11.969,19.406 10.456,18.237 8.945,17.066 C8.909,17.038 8.872,16.987 8.869,16.945 C8.803,16.118 8.743,15.292 8.682,14.465 C8.625,13.708 8.569,12.951 8.513,12.195 C8.447,11.298 8.382,10.401 8.316,9.504 C8.260,8.757 8.189,8.010 8.153,7.262 C8.128,6.716 8.148,6.168 8.148,5.598 C8.214,5.598 8.270,5.598 8.325,5.598 C9.075,5.598 9.825,5.596 10.575,5.600 C10.699,5.601 10.798,5.568 10.897,5.494 C11.560,4.996 12.227,4.503 12.893,4.008 C12.921,3.987 12.953,3.970 13.009,3.936 C13.009,4.015 13.009,4.069 13.009,4.123 C13.009,7.032 13.009,9.942 13.009,12.852 C13.009,13.048 13.009,13.048 13.206,13.048 C13.515,13.048 13.824,13.048 14.148,13.048 C14.148,10.012 14.148,6.988 14.148,3.925 C14.215,3.971 14.255,3.996 14.292,4.024 C14.947,4.518 15.600,5.015 16.259,5.503 C16.334,5.559 16.444,5.593 16.538,5.594 C17.242,5.602 17.945,5.601 18.648,5.595 C18.773,5.594 18.802,5.631 18.805,5.754 C18.830,7.104 18.755,8.451 18.664,9.797 C18.589,10.905 18.532,12.014 18.464,13.122 ZM0.400,0.273 C0.409,0.264 0.418,0.255 0.426,0.247 C1.837,1.365 3.247,2.484 4.647,3.594 C4.347,3.892 4.053,4.184 3.746,4.489 C2.638,3.092 1.519,1.682 0.400,0.273 ZM4.649,23.765 C3.245,24.879 1.831,26.001 0.416,27.124 C0.408,27.115 0.400,27.107 0.393,27.099 C1.515,25.685 2.637,24.271 3.753,22.864 C4.055,23.168 4.347,23.462 4.649,23.765 ZM26.923,27.101 C26.916,27.109 26.908,27.118 26.901,27.126 C25.485,26.002 24.069,24.879 22.660,23.761 C22.964,23.460 23.259,23.168 23.563,22.867 C24.677,24.271 25.800,25.686 26.923,27.101 Z" />
  </g>
</svg>
