<?xml version="1.0" encoding="UTF-8" standalone="no"?>
<!-- Created with Inkscape (http://www.inkscape.org/) -->

<svg
   width="512"
   height="512"
   viewBox="0 0 512 512"
   version="1.1"
   id="svg5"
   inkscape:version="1.2 (dc2aedaf03, 2022-05-15)"
   sodipodi:docname="warrior.svg"
   xmlns:inkscape="http://www.inkscape.org/namespaces/inkscape"
   xmlns:sodipodi="http://sodipodi.sourceforge.net/DTD/sodipodi-0.dtd"
   xmlns="http://www.w3.org/2000/svg"
   xmlns:svg="http://www.w3.org/2000/svg">
  <sodipodi:namedview
     id="namedview7"
     pagecolor="#ffffff"
     bordercolor="#999999"
     borderopacity="1"
     inkscape:showpageshadow="0"
     inkscape:pageopacity="0"
     inkscape:pagecheckerboard="0"
     inkscape:deskcolor="#d1d1d1"
     inkscape:document-units="px"
     showgrid="false"
     showguides="true"
     inkscape:zoom="2.1649824"
     inkscape:cx="205.31345"
     inkscape:cy="256.35312"
     inkscape:window-width="2560"
     inkscape:window-height="1377"
     inkscape:window-x="-8"
     inkscape:window-y="-8"
     inkscape:window-maximized="1"
     inkscape:current-layer="svg5" />
  <defs
     id="defs2" />
  <g
     id="g5"
     transform="matrix(17.397805,0,0,17.502478,-11.01281,-9.4163335)">
    <path
       id="staff-career-warrior"
       d="m 30.032,27.175 c -1.424,-3.535 -2.848,-7.069 -4.273,-10.603 0.01,-0.007 0.019,-0.014 0.029,-0.021 1.076,1.168 2.152,2.335 3.258,3.536 0.333,-3.075 0.661,-6.107 0.989,-9.14 0.009,0.001 0.018,0.001 0.027,0.002 0,5.407 0,10.814 0,16.222 -0.01,0.001 -0.02,0.002 -0.03,0.004 z m -1.126,1.363 c 0.016,0.032 0.03,0.065 0.062,0.134 C 28.295,28.331 27.661,28.009 27.027,27.687 25.621,26.973 24.214,26.261 22.81,25.544 22.739,25.508 22.672,25.445 22.63,25.378 22.224,24.743 21.826,24.104 21.421,23.469 21.354,23.363 21.275,23.263 21.186,23.175 17.67,19.673 14.152,16.172 10.634,12.672 9.519,11.562 8.405,10.452 7.288,9.345 7.216,9.273 7.184,9.202 7.185,9.099 7.19,8.608 7.187,8.117 7.187,7.626 c 0,-0.041 0,-0.082 0,-0.122 0.01,-0.006 0.021,-0.012 0.032,-0.019 4.197,4.178 8.394,8.355 12.588,12.529 0.144,-0.148 0.277,-0.285 0.427,-0.44 C 16.051,15.41 11.852,11.231 7.639,7.038 7.683,7.029 7.712,7.019 7.74,7.018 8.269,7.017 8.799,7.015 9.328,7.022 c 0.064,10e-4 0.141,0.044 0.189,0.091 1.462,1.451 2.921,2.906 4.381,4.359 3.193,3.177 6.383,6.356 9.583,9.526 0.188,0.187 0.443,0.309 0.673,0.453 0.495,0.311 0.995,0.615 1.49,0.928 0.067,0.042 0.13,0.108 0.166,0.178 1.035,1.993 2.065,3.987 3.096,5.981 z M 10.712,6.093 C 9.278,6.089 7.845,6.09 6.411,6.09 c -0.059,0 -0.119,0 -0.194,0 0,1.554 0,3.091 0,4.64 -0.644,0 -1.273,0 -1.92,0 0,-0.067 0,-0.126 0,-0.186 0,-1.558 0,-3.116 0.002,-4.673 C 4.299,5.77 4.273,5.696 4.2,5.623 3.053,4.486 1.908,3.346 0.763,2.208 0.724,2.17 0.676,2.142 0.633,2.11 c 0,-0.01 0,-0.019 0,-0.028 0.515,-0.515 1.031,-1.03 1.546,-1.544 0.01,0 0.019,0 0.029,0 0.027,0.036 0.05,0.076 0.081,0.108 C 3.43,1.783 4.572,2.918 5.71,4.057 5.8,4.147 5.889,4.185 6.016,4.184 7.577,4.18 9.137,4.182 10.697,4.182 c 0.055,0 0.111,0 0.179,0 0.004,0.05 0.009,0.09 0.009,0.131 10e-4,0.538 -0.004,1.076 0.004,1.613 0.003,0.143 -0.048,0.167 -0.177,0.167 z m 3.946,23.272 c 0.846,-0.091 1.693,-0.18 2.54,-0.271 0.74,-0.079 1.48,-0.161 2.219,-0.241 0.261,-0.028 0.521,-0.054 0.782,-0.082 0.031,-0.003 0.062,-0.01 0.127,-0.021 -1.193,-1.089 -2.366,-2.159 -3.539,-3.229 0.005,-0.01 0.009,-0.02 0.013,-0.029 0.044,0.014 0.088,0.027 0.13,0.044 3.474,1.387 6.947,2.773 10.42,4.162 0.049,0.019 0.089,0.062 0.133,0.093 -5.492,0 -10.984,0 -16.476,0 0.463,-0.061 0.926,-0.129 1.39,-0.182 0.753,-0.087 1.507,-0.164 2.261,-0.244 z" />
  </g>
</svg>
